<?xml version="1.0" encoding="UTF-8"?>
<svg width="16px" height="16px" viewBox="0 0 16 16" version="1.1" xmlns="http://www.w3.org/2000/svg">
    <!-- Generator: Sketch 57 (83077) - https://sketch.com -->
    <title>bumen</title>
    <desc>Created with Sketch.</desc>
    <g id="页面-1" stroke="none" stroke-width="1" fill="none" fill-rule="evenodd">
        <g id="首页05备份-20" transform="translate(-18.000000, -245.000000)" fill="#B3B3B3" fill-rule="nonzero">
            <g id="bumen" transform="translate(18.000000, 245.000000)">
                <path d="M14.7519841,9.44196429 L13.7896825,9.44196429 L13.7896825,8.59126984 C13.7896825,7.8968254 13.2266865,7.33630952 12.5347222,7.33630952 L8.56150794,7.33630952 L8.56150794,6.4781746 L10.5729167,6.4781746 C11.25,6.4781746 11.7063492,6.01190476 11.6939484,5.34474206 L11.6939484,1.15327381 C11.6939484,0.52827381 11.187996,0.0198412698 10.5605159,0.0198412698 L5.33482143,0.0198412698 C4.70982143,0.0198412698 4.20138889,0.525793651 4.20138889,1.15327381 L4.20138889,5.34474206 C4.20138889,5.96974206 4.70734127,6.4781746 5.33482143,6.4781746 L7.33382937,6.4781746 L7.33382937,7.33630952 L3.36309524,7.33630952 C2.66865079,7.33630952 2.10813492,7.89930556 2.10813492,8.59126984 L2.10813492,9.44196429 L1.15575397,9.44196429 C0.530753968,9.44196429 0.0223214286,9.94791667 0.0223214286,10.5753968 L0.0223214286,14.7668651 C0.0223214286,15.3918651 0.52827381,15.9002976 1.15575397,15.9002976 L5.33482143,15.9002976 C6.01190476,15.9002976 6.4781746,15.4340278 6.4781746,14.7668651 L6.4781746,10.5753968 C6.4781746,9.95039683 5.97222222,9.44196429 5.34474206,9.44196429 L3.33333333,9.44196429 L3.33333333,8.96825397 C3.33333333,8.74503968 3.51438492,8.5639881 3.73759921,8.5639881 L12.1676587,8.5639881 C12.390873,8.5639881 12.5719246,8.74503968 12.5719246,8.96825397 L12.5719246,9.44196429 L10.5605159,9.44196429 C9.93551587,9.44196429 9.42708333,9.94791667 9.42708333,10.5753968 L9.42708333,14.7668651 C9.42708333,15.3918651 9.93303571,15.9002976 10.5605159,15.9002976 L14.7519841,15.9002976 C15.4290675,15.9002976 15.8953373,15.4340278 15.885572,14.7668651 L15.885572,10.5753968 C15.885572,9.95039683 15.3769841,9.44196429 14.7519841,9.44196429 L14.7519841,9.44196429 Z M5.25049603,10.6597222 L5.25049603,14.6701389 L1.23759921,14.6701389 L1.23759921,10.6597222 L5.25049603,10.6597222 L5.25049603,10.6597222 Z M5.42906746,5.25297619 L5.42906746,1.24255952 L10.4761905,1.24255952 L10.4761905,5.25297619 L5.42906746,5.25297619 L5.42906746,5.25297619 Z M14.6676587,14.6701389 L10.6572421,14.6701389 L10.6572421,10.6597222 L14.6676587,10.6597222 L14.6676587,14.6701389 L14.6676587,14.6701389 Z"
                      id="形状"></path>
            </g>
        </g>
    </g>
</svg>
