<?xml version="1.0" standalone="no"?><!DOCTYPE svg PUBLIC "-//W3C//DTD SVG 1.1//EN"
        "http://www.w3.org/Graphics/SVG/1.1/DTD/svg11.dtd">
<svg class="icon" viewBox="0 0 1024 1024" version="1.1" xmlns="http://www.w3.org/2000/svg"
     xmlns:xlink="http://www.w3.org/1999/xlink" width="32" height="32">
    <defs>
        <style type="text/css"></style>
    </defs>
    <path d="M999.104 747.626L646.101 111.404c-31.465-56.615-80.425-89.101-134.306-89.101-53.965 0-102.935 32.525-134.308 89.2L24.85 747.573c-30.976 55.869-33.086 114.751-5.806 161.539 27.364 46.929 79.669 73.847 143.526 73.847h698.887c63.891 0 116.196-26.919 143.468-73.775 27.329-46.729 25.209-105.62-5.821-161.558z m-71.367 128.791C918 889 891.977 906.138 859.785 906.138l-705.535-3.75c-32.188 0-58.095-17.965-68.01-29.789C74 858 62.774 826.181 78.563 797.68l361.216-657.862c15.637-28.237 49.123-44.43 72-44.43 22.123 0 56.363 16.193 72.051 44.409l351.569 661.7c15.819 28.523-1.721 67.243-7.662 74.92z"
    ></path>
    <path d="M512.001 626.054c25.669 0.005 46.494-20.776 46.543-46.45V362.24c-0.039-25.669-20.869-46.46-46.543-46.445-25.67-0.01-46.495 20.776-46.544 46.445v217.354c0.04 25.678 20.87 46.465 46.544 46.46z m0 46.534c-34.263 0.019-62.031 27.788-62.056 62.05 0 34.205 27.784 62.056 62.056 62.056 34.204 0 62.055-27.779 62.055-62.056 0-34.199-27.783-62.05-62.055-62.05z m0 0"
    ></path>
</svg>
