<?xml version="1.0" standalone="no"?><!DOCTYPE svg PUBLIC "-//W3C//DTD SVG 1.1//EN"
        "http://www.w3.org/Graphics/SVG/1.1/DTD/svg11.dtd">
<svg class="icon" viewBox="0 0 1088 1024" version="1.1" xmlns="http://www.w3.org/2000/svg"
     xmlns:xlink="http://www.w3.org/1999/xlink" width="34" height="32">
    <defs>
        <style type="text/css"></style>
    </defs>
    <path d="M467.52 536.96A539.008 539.008 0 0 0 24.512 323.072a539.2 539.2 0 0 0 85.632 484.48 539.008 539.008 0 0 0 443.008 214.016 539.52 539.52 0 0 0-85.632-484.48z m23.104 401.792a466.176 466.176 0 0 1-151.36-43.648 454.4 454.4 0 0 1-165.248-136 454.4 454.4 0 0 1-86.912-200.96 465.92 465.92 0 0 1 0-152.512c52.48 5.888 104 20.608 151.424 43.648a454.4 454.4 0 0 1 165.248 136 454.4 454.4 0 0 1 86.848 200.96 465.92 465.92 0 0 1 0 152.512z"
    ></path>
    <path d="M519.488 1021.376a539.328 539.328 0 0 0 443.008-214.016 539.584 539.584 0 0 0 85.632-484.48 539.328 539.328 0 0 0-443.008 214.016 538.88 538.88 0 0 0-85.632 484.48z m62.528-235.136a454.4 454.4 0 0 1 86.848-200.96 454.4 454.4 0 0 1 165.248-136 465.28 465.28 0 0 1 151.36-43.648c8.384 50.368 8.512 102.272 0 152.512a454.4 454.4 0 0 1-86.848 200.96 454.4 454.4 0 0 1-165.248 136c-47.36 23.04-98.88 37.76-151.36 43.648a462.528 462.528 0 0 1 0-152.512z m-256-614.272h429.76v87.552H326.016V172.032z"
    ></path>
    <path d="M584.576 0.896v429.76H497.088V0.896z"></path>
</svg>
