<?xml version="1.0" encoding="UTF-8"?>
<svg width="16px" height="15px" viewBox="0 0 16 15" version="1.1" xmlns="http://www.w3.org/2000/svg" xmlns:xlink="http://www.w3.org/1999/xlink">
    <!-- Generator: Sketch 57 (83077) - https://sketch.com -->
    <title>yuan</title>
    <desc>Created with Sketch.</desc>
    <g id="页面-1" stroke="none" stroke-width="1" fill="none" fill-rule="evenodd">
        <g id="查看详情页1" transform="translate(-20.000000, -132.000000)" fill="#CCCCCC" fill-rule="nonzero">
            <g id="yuan" transform="translate(20.000000, 132.000000)">
                <path d="M11.9710225,4.98859499 L8.98066378,4.98859499 L8.98066378,3.99180875 L11.9710225,3.99180875 L11.9710225,4.98859499 L11.9710225,4.98859499 Z M3.9967509,1.99825463 L11.9710225,1.99825463 L11.9710225,2.99504088 L3.9967509,2.99504088 L3.9967509,1.99825463 L3.9967509,1.99825463 Z M13.4797927,14.9564391 L2.48798075,14.9564391 C1.11930871,14.9564391 0.00960590876,13.8745244 0.00960590876,12.5399258 L0.00960590876,11.4526629 L0.00960590876,8.22134573 L0.00960590876,6.40879991 C0.00960590876,5.61790625 0.404777065,4.92237782 1.00637378,4.48140783 L1.00637378,3.99177198 L2.00317841,3.99177198 L2.00317841,4.03948217 C2.15985379,4.00930492 2.32246539,3.99177198 2.48796237,3.99177198 L5.99028666,3.99177198 C7.14380343,3.99177198 8.08119086,4.88198222 7.98385916,5.98534449 L13.9645583,5.98534449 L13.9645582,1.99825463 C13.9645582,1.44774971 13.5177623,1.00146839 12.9677904,1.00146839 L2.99996466,1.00146839 C2.44903703,1.00146839 2.00317841,1.4477681 2.00317841,1.99825463 L2.00317841,3.99180875 L1.00637378,3.99180875 L1.00637378,1.99825463 C1.00637378,0.897299928 1.89899158,0.00468213003 2.99994628,0.00468213003 L12.9677904,0.00468213003 C14.0687635,0.00468213003 14.9613445,0.897299928 14.9613445,1.99825463 L14.9613445,6.20779596 C15.6349476,6.55046018 15.9581307,7.27226965 15.9581307,8.2213641 L15.9581307,12.539889 C15.9581307,13.8745244 14.8484831,14.9564391 13.4797927,14.9564391 L13.4797927,14.9564391 Z M14.9681996,8.1405729 C14.9681996,7.44305961 14.6742013,6.98214912 13.9646134,6.98214912 L8.98066378,6.98214912 L6.98709127,6.98214912 L6.98709127,5.98541801 C6.98709127,5.28795986 6.71064422,4.98179501 6.00008231,4.98179501 L2.28447735,4.98179501 C1.57488949,4.98179501 0.999555424,5.54784801 0.999555424,6.24530616 L0.999555424,6.87704335 L0.999555424,11.3757496 L0.999555424,12.7030519 C0.999555424,13.4004917 1.5748711,13.9664896 2.28447735,13.9664896 L13.6832961,13.9664896 C14.3928839,13.9664896 14.9681996,13.4004917 14.9681996,12.7030519 L14.9681996,8.1405729 L14.9681996,8.1405729 Z" id="形状"></path>
            </g>
        </g>
    </g>
</svg>