<?xml version="1.0" standalone="no"?><!DOCTYPE svg PUBLIC "-//W3C//DTD SVG 1.1//EN"
        "http://www.w3.org/Graphics/SVG/1.1/DTD/svg11.dtd">
<svg class="icon" viewBox="0 0 1216 1024" version="1.1" xmlns="http://www.w3.org/2000/svg"
     xmlns:xlink="http://www.w3.org/1999/xlink" width="38" height="32">
    <defs>
        <style type="text/css"></style>
    </defs>
    <path d="M906.432 738.304a21.888 21.888 0 1 1 0-43.84c114.496 0 207.616-77.44 207.616-172.544 0-92.608-87.04-168.256-198.336-172.224a21.952 21.952 0 0 1-20.352-27.648c4.224-15.744 6.4-32.64 6.4-50.048 0-125.696-122.56-228.032-273.28-228.032-116.992 0-221.12 62.208-258.816 154.88a21.888 21.888 0 0 1-21.248 13.696c-4.928-0.256-9.856-0.256-14.976-0.256C174.208 212.288 44.8 320.384 44.8 453.44c0 132.992 129.536 241.152 288.64 241.152a21.888 21.888 0 1 1 0 43.84c-88.128 0-171.136-29.248-233.728-82.304C35.968 602.176 0.896 530.176 0.896 453.44c0-76.8 35.072-148.8 98.688-202.752 62.592-52.992 145.728-82.304 233.856-82.304h1.92c22.592-47.232 59.84-87.616 108.608-117.568A352.192 352.192 0 0 1 628.672 0.128c83.968 0 163.2 27.84 222.784 78.464 60.8 51.456 94.208 120.128 94.208 193.536 0 12.288-0.896 24.256-2.688 36.032 54.4 6.784 104.64 28.608 143.488 62.912 46.08 40.64 71.36 94.336 71.36 151.104 0 58.496-26.624 113.28-75.008 154.24-47.232 39.872-109.888 61.888-176.384 61.888z"
    ></path>
    <path d="M779.072 608.256a4.608 4.608 0 0 0-3.584-7.36h-120.512c-14.336-0.256-17.152-3.968-10.944-16.64l69.76-164.48a4.544 4.544 0 0 0-4.224-6.4H541.824c-1.92 0-3.776 1.28-4.416 3.2l-97.28 284.096a4.544 4.544 0 0 0 4.416 6.016h153.152c0.64 0 1.024 0.512 0.896 1.152l-29.952 165.12c-0.896 4.736 5.312 7.424 8.128 3.584l202.304-268.288z m30.848 203.072l-7.04-81.536c-0.32-2.56-3.648-3.584-5.184-1.536l-51.648 63.488a39.744 39.744 0 1 0 63.872 19.584z m-321.792 67.008l-6.976-79.232c-0.256-2.56-3.456-3.648-4.992-1.536l-50.112 61.76a38.528 38.528 0 0 0 11.008 65.6 38.464 38.464 0 1 0 51.072-46.592z m189.056 97.408l-6.208-70.208c-0.256-2.304-3.136-3.2-4.48-1.408l-44.416 54.72a34.176 34.176 0 0 0 9.664 58.048 34.368 34.368 0 0 0 45.44-41.152z"
    ></path>
</svg>
