<?xml version="1.0" standalone="no"?><!DOCTYPE svg PUBLIC "-//W3C//DTD SVG 1.1//EN"
        "http://www.w3.org/Graphics/SVG/1.1/DTD/svg11.dtd">
<svg class="icon" viewBox="0 0 1024 1024" version="1.1" xmlns="http://www.w3.org/2000/svg"
     xmlns:xlink="http://www.w3.org/1999/xlink" width="32" height="32">
    <defs>
        <style type="text/css"></style>
    </defs>
    <path d="M484.49792 235.008a249.664 249.664 0 0 1 249.344 249.472c-0.128 75.392-29.952 142.656-69.632 199.488 59.712-31.424 135.04-97.408 135.168-199.488a314.944 314.944 0 0 0-314.88-314.88h-0.96a314.88 314.88 0 0 0-314.88 314.88c0.064 102.08 75.392 168.064 135.168 199.488-39.68-56.832-69.504-124.16-69.632-199.488a249.664 249.664 0 0 1 249.344-249.472h0.96zM483.60192 1.024a483.392 483.392 0 0 0-439.872 684.16c56.064 122.496 161.792 196.992 291.52 230.784l-8.832-18.176c-99.008-48.512-179.136-143.68-223.36-240.64a417.28 417.28 0 0 1-37.376-172.8 418.432 418.432 0 0 1 417.92-417.92 418.432 418.432 0 0 1 417.92 417.92c-0.32 172.096-104.192 340.544-252.608 412.544l-7.552 19.84c189.44-58.24 325.568-220.672 325.632-432.384A483.392 483.392 0 0 0 483.60192 1.024z"
    ></path>
    <path d="M623.69792 631.36c13.824 170.816-80.384 380.8-80.384 380.8s-23.936 11.456-59.456 11.456c-35.392 0-59.968-11.456-59.968-11.456s-94.272-209.984-80.448-380.8c0 0 22.272-71.808 141.248-71.808s139.008 71.808 139.008 71.808m-33.728-213.76a106.432 106.432 0 1 1-212.864 0 106.432 106.432 0 0 1 212.864 0"
    ></path>
</svg>
