<?xml version="1.0" encoding="UTF-8"?>
<svg width="16px" height="16px" viewBox="0 0 16 16" version="1.1" xmlns="http://www.w3.org/2000/svg">
    <!-- Generator: Sketch 57 (83077) - https://sketch.com -->
    <title>xiaodui</title>
    <desc>Created with Sketch.</desc>
    <g id="页面-1" stroke="none" stroke-width="1" fill="none" fill-rule="evenodd">
        <g id="首页05备份-20" transform="translate(-18.000000, -182.000000)" fill="#B4B4B4" fill-rule="nonzero">
            <g id="xiaodui" transform="translate(18.000000, 182.000000)">
                <path d="M4.53286903,1.08408697 C5.62511982,1.08408697 6.5133705,1.97233762 6.5133705,3.06458841 C6.5133705,4.15683921 5.62511985,5.04508988 4.53286903,5.04508988 C3.44061821,5.04508988 2.55236759,4.15683924 2.55236759,3.06458841 C2.55236759,1.97233759 3.44061824,1.08408697 4.53286903,1.08408697 L4.53286903,1.08408697 Z M4.53286903,0.0215862059 C2.85199279,0.0215862059 1.48986682,1.38371221 1.48986682,3.06458841 C1.48986682,4.74546462 2.85199282,6.10759065 4.53286903,6.10759065 C6.21374524,6.10759065 7.57587374,4.74546465 7.57587374,3.06458841 C7.57799626,1.38371218 6.21374526,0.0215862059 4.53286903,0.0215862059 Z M5.77174494,7.36346659 C6.89162076,7.36346659 7.80112144,8.27509226 7.80112144,9.39284306 L7.80112144,12.03422 C7.80112144,13.1540958 6.88949576,14.0635965 5.77174494,14.0635965 L3.02199294,14.0635965 C1.90211712,14.0635965 0.992616441,13.1519708 0.992616441,12.03422 L0.992616441,9.39496806 C0.992616441,8.27509224 1.90424212,7.36559156 3.02199294,7.36559159 L5.77174494,7.36559159 L5.77174494,7.36346659 Z M5.77174494,6.38171585 L3.02199294,6.38171585 C1.36449174,6.38171585 0.0108657353,7.73746685 0.0108657353,9.39284306 L0.0108657353,12.03422 C0.0108657353,13.6917212 1.36661674,15.0453472 3.02199294,15.0453472 L5.77174494,15.0453472 C7.42924615,15.0453472 8.78287215,13.6895962 8.78287215,12.03422 L8.78287215,9.39496806 C8.78287215,7.73746685 7.42924615,6.38171585 5.77174494,6.38171585 Z M10.8398737,1.08408697 C11.9321245,1.08408697 12.8203751,1.97233762 12.8203751,3.06458841 C12.8203751,4.15683921 11.9321245,5.04508988 10.8398737,5.04508988 C9.74762288,5.04508988 8.85937221,4.15683924 8.85937221,3.06458841 C8.85937221,1.97233759 9.74762285,1.08408697 10.8398737,1.08408697 L10.8398737,1.08408697 Z M10.8398737,0.0215862059 C9.15899744,0.0215862059 7.79687144,1.38371221 7.79687144,3.06458841 C7.79687144,4.74546462 9.15899744,6.10759065 10.8398737,6.10759065 C12.5207499,6.10759065 13.8828759,4.74546465 13.8828759,3.06458841 C13.8828759,1.38371218 12.5207499,0.0215862059 10.8398737,0.0215862059 Z"
                      id="形状"></path>
                <path d="M12.0787496,6.38171585 L9.32899756,6.38171585 C8.44924691,6.38171585 7.65449632,6.76634115 7.10412091,7.37409159 L7.94774653,7.90959197 C8.32221746,7.55892786 8.81597344,7.36370435 9.32899756,7.36346659 L12.0787496,7.36346659 C13.1986254,7.36346659 14.1081261,8.27509226 14.1081261,9.39284306 L14.1081261,12.03422 C14.1081261,13.1540958 13.1965004,14.0635965 12.0787496,14.0635965 L9.32899756,14.0635965 C8.64262206,14.0635965 8.03699662,13.7214712 7.66937135,13.1987209 L7.10199591,14.0508465 C7.65449632,14.6607219 8.44712188,15.0453472 9.32899756,15.0453472 L12.0787496,15.0453472 C13.7362508,15.0453472 15.0898768,13.6895962 15.0898768,12.03422 L15.0898768,9.39496806 C15.0898768,7.73746685 13.7341258,6.38171585 12.0787496,6.38171585 Z"
                      id="路径"></path>
            </g>
        </g>
    </g>
</svg>
