<?xml version="1.0" encoding="UTF-8"?>
<svg width="16px" height="16px" viewBox="0 0 16 16" version="1.1" xmlns="http://www.w3.org/2000/svg">
    <!-- Generator: Sketch 57 (83077) - https://sketch.com -->
    <title>yuanguanli-01</title>
    <desc>Created with Sketch.</desc>
    <g id="页面-1" stroke="none" stroke-width="1" fill="none" fill-rule="evenodd">
        <g id="首页05备份-20" transform="translate(-18.000000, -306.000000)" fill="#B3B3B3" fill-rule="nonzero">
            <g id="yuanguanli-01" transform="translate(18.000000, 306.000000)">
                <path d="M14.9340278,8.30381944 L14.9307726,1.28624132 C14.9307726,0.580512153 14.3565538,0.00629340278 13.6508247,0.00629340278 L2.28428819,0.00629340278 C1.57855903,0.00629340278 1.00434028,0.580512153 1.00434028,1.28624132 L1.00434028,5.70355903 C0.448133681,5.78515625 0.0184461806,6.26106771 0.0184461806,6.83962674 L0.0184461806,14.7610677 C0.0184461806,15.3969184 0.535590278,15.9140625 1.17144097,15.9140625 L14.5410156,15.9140625 C15.1768663,15.9140625 15.6940104,15.3969184 15.6940104,14.7610677 L15.6940104,9.38302951 C15.6935764,8.88606771 15.3758681,8.46527778 14.9340278,8.30381944 L14.9340278,8.30381944 Z M2.28428819,1.17165799 L13.6508247,1.17165799 C13.7139757,1.17165799 13.765191,1.22309028 13.765191,1.28645833 L13.7684462,8.22721354 L8.94227431,8.22721354 L8.94227431,6.83940972 C8.94227431,6.20355903 8.42513021,5.68641493 7.78927951,5.68641493 L2.16970486,5.68641493 L2.16970486,1.28624132 C2.16970486,1.22309028 2.22113715,1.17165799 2.28428819,1.17165799 Z M1.18381076,14.7608507 L1.17122396,6.85199653 L7.77690972,6.83940972 L7.77690972,8.81271701 C7.77690972,9.13454861 8.03776042,9.39539931 8.35959201,9.39539931 L14.5279948,9.39539931 L14.5405816,14.7480469 L1.18381076,14.7608507 L1.18381076,14.7608507 Z"
                      id="形状"></path>
                <path d="M4.28515625,3.82291667 L11.6495226,3.82291667 C11.9713542,3.82291667 12.2322049,3.56206597 12.2322049,3.24023437 C12.2322049,2.91840278 11.9713542,2.65755208 11.6495226,2.65755208 L4.28515625,2.65755208 C3.96332465,2.65755208 3.70247396,2.91840278 3.70247396,3.24023437 C3.70247396,3.56206597 3.96332465,3.82291667 4.28515625,3.82291667 Z M11.4754774,5.33789062 L9.9609375,5.33789062 C9.6391059,5.33789062 9.37825521,5.59874132 9.37825521,5.92057292 C9.37825521,6.24240451 9.6391059,6.50325521 9.9609375,6.50325521 L11.4754774,6.50325521 C11.797309,6.50325521 12.0581597,6.24240451 12.0581597,5.92057292 C12.0581597,5.59874132 11.797309,5.33789062 11.4754774,5.33789062 Z"
                      id="形状"></path>
            </g>
        </g>
    </g>
</svg>
