<?xml version="1.0" encoding="UTF-8"?>
<svg width="18px" height="16px" viewBox="0 0 18 16" version="1.1" xmlns="http://www.w3.org/2000/svg">
    <!-- Generator: Sketch 57 (83077) - https://sketch.com -->
    <title>zhihui</title>
    <desc>Created with Sketch.</desc>
    <g id="页面-1" stroke="none" stroke-width="1" fill="none" fill-rule="evenodd">
        <g id="首页05备份-20" transform="translate(-18.000000, -122.000000)" fill="#B3B3B3" fill-rule="nonzero">
            <g id="zhihui" transform="translate(18.000000, 122.000000)">
                <path d="M2.75902172,8.6312369 C3.10919603,8.38659458 3.49374817,8.14355123 3.90228486,7.91409912 C4.71775926,7.45839283 5.52523881,7.11941132 6.30553589,6.94912107 C7.00348603,6.79721898 7.65906349,6.78522671 8.3226358,6.96431128 C8.6887998,7.09382781 9.19407413,7.35366034 9.70334589,7.77738723 C9.76810415,7.83175219 9.83126344,7.88691664 9.89362325,7.94527902 L9.95198563,8.00444089 C9.99595729,8.05480842 10.1078852,8.15874144 10.2685816,8.2650729 C10.8514059,8.6520235 11.4278344,8.66961216 12.1505686,8.03721976 C12.4040296,7.82346017 12.6491219,7.59997015 12.885295,7.36725158 C13.4934861,6.76674728 14.0525203,6.11841737 14.5570175,5.42850116 L14.636966,5.31977124 C14.8983962,4.9845039 15.1574358,4.6473793 15.4140652,4.30842309 C14.3027814,4.6577979 13.1531224,4.84407784 12.0138567,4.78971288 C11.5973252,4.81609588 11.0584725,4.74574122 10.4436687,4.50749478 C9.54105049,4.15732048 8.66401577,3.50574044 7.86453106,2.49918919 C7.71422794,2.3105108 7.56872172,2.10984014 7.42561396,1.89797669 L7.38324127,1.82602307 C7.26984347,1.6329678 7.12838903,1.45783373 6.9635118,1.30635801 C6.45583901,0.826667187 5.87141569,0.65397849 5.06713407,0.94259247 C4.95840415,0.974571858 4.7153608,1.06811157 4.34999629,1.24559717 C3.71760389,1.5525993 2.99327074,1.98512053 2.19218707,2.56474694 L2.10264478,2.62870572 L0.955384225,3.04843519 L2.45042063,8.85269416 C2.53356704,8.79113384 2.63750005,8.71678176 2.75902172,8.6312369 L2.75902172,8.6312369 Z M0,2.54635879 L1.72368903,1.91636484 C3.64085336,0.530058361 4.84008042,0.175886636 4.84008042,0.175886636 C7.0002881,-0.6012125 8.08918627,1.45186423 8.08918627,1.45186423 C9.96797533,4.24766225 12.0010649,3.9886292 12.0010649,3.9886292 C14.4450897,4.12294263 16.6428731,2.96049187 16.6428731,2.96049187 L16.7260196,2.94450218 C17.2009135,2.92691351 17.0570062,3.30826772 17.0570062,3.30826772 C17.0106361,3.43378682 16.7420093,3.85591474 16.7420093,3.85591474 C16.2895009,4.5010989 15.26696,5.81145434 15.26696,5.81145434 C13.9685968,7.61269338 12.6478481,8.66321629 12.6478481,8.66321629 C10.8434111,10.244597 9.34917417,8.53050182 9.34917417,8.53050182 C8.97193416,8.18246349 8.53366216,7.90708665 8.05640739,7.71822536 C5.88180899,7.1409974 2.79819647,9.59381649 2.79819647,9.59381649 L4.39716589,15.9896941 L3.46416724,15.9896941 L0,2.54635879 Z"
                      id="形状"></path>
            </g>
        </g>
    </g>
</svg>
