<?xml version="1.0" encoding="UTF-8"?>
<svg width="80px" height="95px" viewBox="0 0 80 95" version="1.1" xmlns="http://www.w3.org/2000/svg" xmlns:xlink="http://www.w3.org/1999/xlink">
    <!-- Generator: Sketch 57 (83077) - https://sketch.com -->
    <title>anquan</title>
    <desc>Created with Sketch.</desc>
    <g id="Page-1" stroke="none" stroke-width="1" fill="none" fill-rule="evenodd">
        <g id="吴中化工园区安环应急一体化智慧管理首页备份-7" transform="translate(-227.000000, -427.000000)" fill="#00FDFF" fill-rule="nonzero">
            <g id="anquan" transform="translate(227.000000, 427.000000)">
                <path d="M77.859245,13.3074569 C76.7215908,12.2756633 75.2267844,11.7068824 73.6790939,11.7068824 C73.5335704,11.7068824 73.4013602,11.7068824 73.2558366,11.7201034 C73.1764181,11.7333243 72.1842875,11.7862084 70.6499105,11.7862085 C68.0968684,11.7862085 63.1098658,11.6142429 58.4005968,10.4899021 C52.3025669,9.03466624 45.278419,2.3281924 43.2281452,1.00535161 C42.1828532,0.330710244 40.9924998,0 39.8019615,0 C38.6114233,0 37.434106,0.330710244 36.4023124,0.992038184 C36.1510207,1.16400379 28.7829416,8.78346709 21.5868281,10.4899021 C16.8644307,11.6142428 11.7980094,11.7862084 9.24505973,11.7862085 C7.71059024,11.7862085 6.71845969,11.7333244 6.62582017,11.7201034 C6.49361002,11.7068824 6.36130751,11.7068824 6.21578384,11.7068824 C4.66809338,11.7068824 3.16015838,12.2756633 2.02250425,13.3074569 C0.77898946,14.4186691 0.0779060651,15.9928016 0.0779060651,17.6330391 L0.0779060651,32.4485235 C0.0779060651,87.252576 37.1430589,94.303166 38.7171914,94.5808997 C39.0743437,94.6338762 39.4448093,94.6735392 39.8019615,94.6735392 C40.1591138,94.6735392 40.529487,94.6470972 40.8866392,94.5808997 C42.4607717,94.303166 79.8037507,87.239355 79.8037507,32.4486159 L79.8037507,17.6329467 C79.8037507,15.9927091 79.0894463,14.4185766 77.8591526,13.3073645 L77.859245,13.3074569 Z M64.154788,34.4988898 L38.4526787,59.3677054 C38.2939341,59.6323106 38.0955264,59.8968233 37.8573634,60.1217654 C37.1033959,60.8492909 36.1112653,61.2064431 35.1192271,61.1800011 C34.1270964,61.1932221 33.1349659,60.8492909 32.3809983,60.1217654 C32.1428352,59.8968233 31.9444276,59.6323107 31.7856831,59.3677054 L18.0417478,46.0734696 C16.5733834,44.6580816 16.5733834,42.3696447 18.0417478,40.9542568 C19.5100197,39.5387764 21.8778752,39.5387764 23.3329262,40.9542568 L35.1059136,52.356871 L58.8503886,29.3928056 C60.318753,27.9774176 62.686516,27.9774176 64.1415669,29.3928056 C65.6099313,30.7950649 65.6099313,33.0835018 64.1548805,34.4988898 L64.154788,34.4988898 Z" id="形状"></path>
            </g>
        </g>
    </g>
</svg>