<?xml version="1.0" encoding="UTF-8"?>
<svg width="88px" height="91px" viewBox="0 0 88 91" version="1.1" xmlns="http://www.w3.org/2000/svg" xmlns:xlink="http://www.w3.org/1999/xlink">
    <!-- Generator: Sketch 57 (83077) - https://sketch.com -->
    <title>huanbao</title>
    <desc>Created with Sketch.</desc>
    <g id="Page-1" stroke="none" stroke-width="1" fill="none" fill-rule="evenodd">
        <g id="吴中化工园区安环应急一体化智慧管理首页备份-7" transform="translate(-569.000000, -430.000000)" fill="#00FDFF" fill-rule="nonzero">
            <g id="huanbao" transform="translate(569.000000, 430.000000)">
                <path d="M77.9248899,0 L9.1043771,0 C9.1043771,0 -5.56228956,27.0769231 2.33514634,51.3333333 C10.2325822,75.5897436 30.5402745,90.2564103 44.0787361,90.2564103 C57.6171976,90.2564103 75.1043771,76.7179487 84.6941207,54.1538462 C94.2838643,31.5897436 77.9248899,0 77.9248899,0 Z M54.7966848,34.974359 L54.7966848,69.3846154 L50.2838643,69.3846154 L50.2838643,37.2307692 C46.3351463,45.6923077 41.8223258,53.5897436 36.7454027,60.3589744 C35.6171976,59.2307692 34.4889925,58.6666667 33.3607874,57.5384615 C34.4889925,55.8461538 35.6171976,54.7179487 36.7454027,53.025641 C29.4120694,55.2820513 23.2069412,57.5384615 17.5659156,59.2307692 L17.001813,54.7179487 C19.8223258,54.1538462 22.6428386,53.5897436 25.4633515,52.4615385 L25.4633515,39.4871795 L18.1300181,39.4871795 L18.1300181,35.5384615 L25.4633515,35.5384615 L25.4633515,25.3846154 L17.5659156,25.3846154 L17.5659156,21.4358974 L37.3095053,21.4358974 L37.3095053,25.3846154 L29.976172,25.3846154 L29.976172,35.5384615 L37.3095053,35.5384615 L37.3095053,39.4871795 L29.976172,39.4871795 L29.976172,51.3333333 L36.7454027,49.6410256 L36.7454027,53.5897436 C42.950531,45.1282051 47.4633515,34.974359 50.8479668,23.6923077 L39.001813,23.6923077 L39.001813,19.7435897 L69.4633515,19.7435897 L69.4633515,23.6923077 L55.3607874,23.6923077 C54.2325822,28.2051282 52.5402745,32.1538462 50.8479668,36.1025641 L54.7966848,36.1025641 L54.7966848,34.974359 Z M68.3351463,57.5384615 C64.3864284,50.7692308 60.4377104,44.5641026 55.9248899,38.3589744 L59.3095053,36.1025641 C64.950531,43.4358974 69.4633515,49.6410256 72.2838643,54.7179487 L68.3351463,57.5384615 L68.3351463,57.5384615 Z" id="形状"></path>
            </g>
        </g>
    </g>
</svg>