<?xml version="1.0" encoding="UTF-8"?>
<svg width="40px" height="40px" viewBox="0 0 40 40" version="1.1" xmlns="http://www.w3.org/2000/svg" xmlns:xlink="http://www.w3.org/1999/xlink">
    <!-- Generator: Sketch 57 (83077) - https://sketch.com -->
    <title>zhb备份 2</title>
    <desc>Created with Sketch.</desc>
    <g id="Page-1" stroke="none" stroke-width="1" fill="none" fill-rule="evenodd">
        <g id="园区平台介绍" transform="translate(-479.000000, -562.000000)" fill="#FFFFFF" fill-rule="nonzero">
            <g id="zhb备份-2" transform="translate(479.000000, 562.000000)">
                <path d="M20.0135108,-2.48689958e-14 L21.0392679,0.0250666667 L22.050183,0.102533333 L23.04599,0.232533333 L24.0293511,0.4076 L24.9927454,0.632533333 L25.9386356,0.902533333 L26.8672213,1.2176 L27.773178,1.57506667 L28.6567055,1.97753333 L29.5177371,2.42006667 L30.3538769,2.90253333 L31.1649917,3.425 L31.9461564,3.98253333 L32.7024293,4.57753333 L33.426223,5.20753333 L34.1200666,5.86993333 L34.7813644,6.56493333 L35.4103161,7.28993333 L36.0043927,8.04746667 L36.5609983,8.82993333 L37.0825291,9.64246667 L37.5642596,10.4799333 L38.0060566,11.3424667 L38.4078536,12.2274667 L38.7647255,13.1349333 L39.0792679,14.065 L39.3488186,15.0125333 L39.5734443,15.9775333 L39.7482196,16.9625333 L39.8780033,17.96 L39.9553411,18.9725333 L39.9802329,20 L39.9552745,21.0274667 L39.8779368,22.0400667 L39.7481531,23.04 L39.5733777,24.0225333 L39.3487521,24.9875333 L39.0792013,25.9375333 L38.7646589,26.8651333 L38.407787,27.7726 L38.00599,28.6575333 L37.564193,29.5200667 L37.0824626,30.3575333 L36.5609318,31.1700667 L36.0043261,31.9526 L35.4102496,32.7100667 L34.7812978,33.4351333 L34.12,34.1301333 L33.4261564,34.7950667 L32.7023627,35.4225333 L31.9460899,36.0176 L31.1649251,36.5776 L30.3538103,37.0975333 L29.5176705,37.5800667 L28.6566389,38.0226 L27.7731115,38.4250667 L26.8671547,38.7825333 L25.9385691,39.0976 L24.9926789,39.3676 L24.0292845,39.5926 L23.0459235,39.7702 L22.0501165,39.8976667 L21.0392013,39.9752 L20.0135108,40 L18.9877537,39.975 L17.9769052,39.8974667 L16.9785691,39.77 L15.9976705,39.5924 L15.0343428,39.3674 L14.0858569,39.0974 L13.1598003,38.7823333 L12.2538436,38.4248667 L11.3703827,38.0224 L10.5092845,37.5798667 L9.67321131,37.0973333 L8.86202995,36.5774 L8.08079867,36.0174 L7.32452579,35.4223333 L6.60073211,34.7948667 L5.90688852,34.1299333 L5.24306156,33.4349333 L4.61657238,32.7098667 L4.0225624,31.9524 L3.46356073,31.17 L2.94449251,30.3574667 L2.46282862,29.52 L2.02096506,28.6574667 L1.61916805,27.7725333 L1.26229617,26.8650667 L0.947753744,25.9374667 L0.678202995,24.9874667 L0.453643927,24.0224667 L0.276339434,23.04 L0.149084859,22.0400667 L0.0716805324,21.0274667 L0.0467886855,20 L0.0717470882,18.9725333 L0.149084859,17.96 L0.27640599,16.9625333 L0.453710483,15.9775333 L0.678269551,15.0125333 L0.9478203,14.065 L1.26236273,13.1349333 L1.61923461,12.2274667 L2.02103161,11.3424667 L2.46289517,10.4799333 L2.94455907,9.64246667 L3.46362729,8.82993333 L4.02276206,8.04746667 L4.61677205,7.28993333 L5.24326123,6.56493333 L5.90708819,5.86993333 L6.60093178,5.20753333 L7.32472546,4.57753333 L8.08099834,3.98253333 L8.86222962,3.425 L9.67341098,2.90253333 L10.5094842,2.42006667 L11.3705824,1.97753333 L12.2540433,1.57506667 L13.16,1.2176 L14.0860566,0.902533333 L15.0345424,0.632533333 L15.9978702,0.4076 L16.9787687,0.232533333 L17.9771048,0.102533333 L18.9879534,0.0250666667 L20.0135108,-2.48689958e-14 Z M20.0135108,1.5 L19.0652246,1.52486667 L18.1293178,1.5948 L17.2082529,1.7148 L16.2998336,1.87733333 L15.4063228,2.08486667 L14.5327787,2.33486667 L13.6742097,2.62486667 L12.8355408,2.9574 L12.0194343,3.32986667 L11.2232945,3.73746667 L10.449584,4.18493333 L9.69830283,4.66746667 L8.97450915,5.18493333 L8.27567388,5.73246667 L7.60672213,6.31506667 L6.96539101,6.93006667 L6.35141431,7.57246667 L5.76985025,8.245 L5.22069884,8.94253333 L4.7066223,9.67 L4.22489185,10.42 L3.77816972,11.1950667 L3.37124792,11.9925333 L2.999401,12.81 L2.66742097,13.65 L2.37790349,14.51 L2.12831947,15.385 L1.92106489,16.28 L1.75633943,17.19 L1.63906822,18.1125333 L1.56925125,19.05 L1.54429285,20 L1.56911814,20.95 L1.63893511,21.8874667 L1.75620632,22.8100667 L1.92093178,23.7200667 L2.12818636,24.6150667 L2.37777038,25.49 L2.66728785,26.3500667 L2.99926789,27.1900667 L3.37111481,28.0075333 L3.77803661,28.805 L4.22475874,29.58 L4.70648918,30.3326667 L5.22056572,31.0576667 L5.76971714,31.7576667 L6.3512812,32.4276667 L6.9652579,33.0700667 L7.60658902,33.6851333 L8.27554077,34.2676667 L8.97437604,34.8176667 L9.69816972,35.3326 L10.4494509,35.8151333 L11.2231614,36.2625333 L12.0193012,36.6701333 L12.8354077,37.0426 L13.6740765,37.3752 L14.5326456,37.6652 L15.4061897,37.9151333 L16.2997005,38.1227333 L17.2081198,38.2877333 L18.1291847,38.4052 L19.0650915,38.4752 L20.0135108,38.5002 L20.9619301,38.4752 L21.8978369,38.4052 L22.8189018,38.2877333 L23.7273877,38.1227333 L24.6208985,37.9151333 L25.4944426,37.6652 L26.3530116,37.3752 L27.191614,37.0426 L28.0077205,36.6701333 L28.8038602,36.2625333 L29.5776373,35.8151333 L30.3263894,35.3326 L31.0526456,34.8176667 L31.7490183,34.2676667 L32.4203661,33.6851333 L33.0616972,33.0700667 L33.6757404,32.4276667 L34.2573045,31.7576667 L34.8063894,31.0576667 L35.3204659,30.3326667 L35.8021963,29.5801333 L36.2488519,28.8051333 L36.6557737,28.0076667 L37.0276206,27.1902 L37.3596007,26.3502 L37.6490516,25.4901333 L37.8986356,24.6152 L38.1058902,23.7202 L38.2680865,22.8102 L38.3878869,21.8876 L38.4577704,20.9501333 L38.4827288,20.0001333 L38.4577704,19.0501333 L38.3878869,18.1126667 L38.2680865,17.1901333 L38.1058902,16.2801333 L37.8986356,15.3851333 L37.6490516,14.5101333 L37.3596007,13.6501333 L37.0276206,12.8101333 L36.6557737,11.9926667 L36.2488519,11.1952 L35.8021963,10.4201333 L35.3204659,9.67013333 L34.8063894,8.94266667 L34.2573045,8.24513333 L33.6757404,7.5726 L33.0616972,6.9302 L32.4203661,6.3152 L31.7490183,5.7326 L31.0526456,5.18506667 L30.3263894,4.6676 L29.5776373,4.18506667 L28.8038602,3.7376 L28.0077205,3.33 L27.191614,2.95753333 L26.3530116,2.625 L25.4944426,2.335 L24.6208985,2.085 L23.7273877,1.87746667 L22.8189018,1.71493333 L21.8978369,1.59493333 L20.9619301,1.525 L20.0135108,1.5 Z M19.4768053,32.5900667 L19.4768053,34.2625333 L21.2039268,34.2625333 L21.2039268,32.5900667 L21.9027621,32.5900667 L21.9027621,36.5626 L21.2039268,36.5626 L21.2039268,34.705 L19.4768053,34.705 L19.4768053,36.5626 L18.7804992,36.5626 L18.7804992,32.5900667 L19.4768053,32.5900667 Z M26.2306822,31.8076 L26.3004992,31.8100667 L26.365391,31.8150667 L26.4302829,31.8226 L26.4926456,31.8351333 L26.5525458,31.8500667 L26.6124459,31.8676 L26.6673544,31.8876 L26.7198003,31.9101333 L26.7721797,31.9351333 L26.8197005,31.9601333 L26.8670882,31.9901333 L26.9095507,32.0176667 L26.9520133,32.0501333 L26.9894176,32.0826667 L27.0268885,32.1201333 L27.0593012,32.1551333 L27.0917138,32.1951333 L27.1191348,32.2352 L27.1465557,32.2776667 L27.1690516,32.3226667 L27.1915474,32.3701333 L27.2115141,32.4177333 L27.2264892,32.4677333 L27.2414642,32.5152 L27.2514476,32.5626667 L27.2614309,32.6076667 L27.2714143,32.6976667 L27.2739434,32.7402 L27.2714143,32.7827333 L27.2689517,32.8227333 L27.2614309,32.8627333 L27.2539101,32.9028 L27.2439268,32.9402667 L27.2289517,32.9778 L27.2140433,33.0152667 L27.1965391,33.0502667 L27.1740433,33.0852667 L27.1291181,33.1502667 L27.084193,33.2128 L27.0343428,33.2728 L26.984426,33.3278 L26.9320466,33.3802667 L26.8796007,33.4302667 L26.8221631,33.4728 L26.7646589,33.5152667 L26.8121797,33.5078 L26.8570383,33.5027333 L26.9019634,33.5002667 L26.946822,33.4977333 L26.9917471,33.4952 L27.0366057,33.4952 L27.0815308,33.4977333 L27.1263894,33.5002667 L27.1688519,33.5052667 L27.213777,33.5102667 L27.2586356,33.5152667 L27.3010982,33.5252667 L27.3884193,33.5452667 L27.475807,33.5678 L27.518203,33.5828 L27.558203,33.6002667 L27.5981364,33.6202667 L27.6356739,33.6402667 L27.6706156,33.6628 L27.7030283,33.6853333 L27.7355075,33.7128667 L27.765391,33.7403333 L27.7953411,33.7703333 L27.8227621,33.8003333 L27.8477205,33.8353333 L27.8702163,33.8703333 L27.8927121,33.9078667 L27.9126789,33.9453333 L27.9301165,33.9878667 L27.9478203,34.0300667 L27.9727787,34.1075333 L27.9927454,34.1850667 L28.0102496,34.2600667 L28.0226955,34.3326 L28.0302163,34.4026 L28.0327454,34.4725333 L28.0302163,34.5400667 L28.0226955,34.605 L28.0127121,34.67 L27.9952745,34.7325333 L27.9753078,34.7925333 L27.9502829,34.8501333 L27.9353744,34.8801333 L27.9203993,34.9076667 L27.9028952,34.9351333 L27.8854576,34.9626 L27.8455241,35.0150667 L27.8030616,35.0676 L27.7556739,35.1176 L27.703228,35.1650667 L27.6508486,35.215 L27.595807,35.26 L27.4760067,35.3499333 L27.4136439,35.3924 L27.346223,35.4349333 L27.276406,35.4749333 L27.2039933,35.5149333 L27.1316473,35.5524667 L27.0542429,35.5899333 L26.974376,35.6275333 L26.8920466,35.6625333 L26.8071215,35.6950667 L26.7172712,35.7275333 L25.2922463,36.24 L23.9544759,32.5000667 L25.4395341,31.9675333 L25.5268552,31.9376 L25.6141764,31.9101333 L25.6990349,31.8850667 L25.7813644,31.8650667 L25.8611647,31.8476 L25.9385691,31.8326 L26.0160399,31.8226 L26.088386,31.8150667 L26.1607987,31.8100667 L26.2306822,31.8076 Z M13.5068885,31.5024667 L16.3645258,32.3174667 L16.2422629,32.74 L13.037604,35.0400667 L15.48599,35.7375333 L15.3661897,36.1625333 L12.2463894,35.2724667 L12.3661897,34.8500667 L15.5733111,32.5500667 L13.3846256,31.9275333 L13.5068885,31.5024667 Z M26.6523794,33.8824 L26.6099834,33.8824 L26.5201331,33.8874 L26.4302829,33.8974 L26.3379035,33.9124 L26.2480532,33.9324 L26.1556739,33.9574 L26.0633611,33.9874 L25.3221298,34.2549333 L25.798802,35.5874 L26.4551747,35.3524 L26.5175374,35.3298667 L26.5799002,35.3073333 L26.6373378,35.2823333 L26.7471547,35.2323333 L26.7995341,35.2048667 L26.8470549,35.1798667 L26.8944426,35.1524 L26.9393012,35.1249333 L26.9817637,35.0974667 L27.0216972,35.0699333 L27.0591681,35.0399333 L27.0941098,35.0099333 L27.1265225,34.98 L27.1564725,34.95 L27.1838935,34.92 L27.2113145,34.8875333 L27.2338103,34.8550667 L27.253777,34.8200667 L27.2712146,34.7849333 L27.2861897,34.7474667 L27.296173,34.7099333 L27.3061564,34.6724 L27.3162063,34.5924 L27.3162063,34.5498667 L27.3136772,34.5073333 L27.3086855,34.4623333 L27.3011647,34.4173333 L27.2911814,34.3698667 L27.2762729,34.3249333 L27.2614309,34.275 L27.2439268,34.2324667 L27.2264892,34.1924667 L27.2065225,34.1549333 L27.1840266,34.1199333 L27.1615308,34.0874667 L27.1365724,34.0575333 L27.1091514,34.0300667 L27.0792013,34.0049333 L27.0493178,33.9799333 L27.0168386,33.9599333 L26.9818968,33.9424667 L26.9469551,33.9274667 L26.9095507,33.9149333 L26.8696173,33.9024667 L26.8296173,33.8949333 L26.7846256,33.8899333 L26.7421631,33.8849333 L26.6973045,33.8849333 L26.6523794,33.8824 Z M26.0585691,32.2974667 L25.9536106,32.2974667 L25.9162063,32.3024667 L25.8437937,32.3124 L25.7689185,32.3274 L25.6940433,32.3474 L25.6166389,32.3724667 L24.760599,32.68 L25.1747754,33.8399333 L26.0009318,33.5424667 L26.0409983,33.5275333 L26.0784692,33.5125333 L26.1158735,33.495 L26.1508153,33.4800667 L26.1857571,33.46 L26.2181697,33.4425333 L26.2506489,33.4225333 L26.2805324,33.4025333 L26.3104825,33.38 L26.3404326,33.3574667 L26.3678536,33.335 L26.4227621,33.285 L26.4477205,33.2599333 L26.4702163,33.2324667 L26.4927121,33.2049333 L26.5151414,33.1774667 L26.5326456,33.1474667 L26.5500832,33.1174667 L26.5625291,33.0875333 L26.5750416,33.055 L26.585025,33.0225333 L26.5925458,32.9900667 L26.5975374,32.9550667 L26.6000666,32.9200667 L26.6000666,32.8850667 L26.5975374,32.8475333 L26.5950749,32.8100667 L26.5875541,32.7725333 L26.5675874,32.6925333 L26.5550749,32.6525333 L26.5400998,32.6175333 L26.5251248,32.5850667 L26.5101498,32.5550667 L26.4927121,32.5250667 L26.475208,32.4976 L26.4352745,32.4475333 L26.4127787,32.4250667 L26.3878203,32.4049333 L26.3653245,32.3874 L26.3379035,32.3699333 L26.3104825,32.3549333 L26.2830616,32.3424667 L26.223228,32.3224667 L26.1907488,32.315 L26.1583361,32.3074667 L26.1259235,32.3024667 L26.0909817,32.2999333 L26.0585691,32.2974667 Z M30.9753744,24.9024 L30.9828952,24.9198667 L31.005391,24.9724 L31.0378037,25.0573333 L31.0777371,25.1723333 L31.1276539,25.3174 L31.1800998,25.4874 L31.2075874,25.5824 L31.2350083,25.6848667 L31.2624293,25.7924 L31.2873877,25.9073333 L31.3148752,26.0249333 L31.3398336,26.1499333 L31.3648586,26.2799333 L31.3873544,26.4148667 L31.4073211,26.5523333 L31.4272879,26.6973333 L31.4447255,26.8449333 L31.4571714,26.9948667 L31.4696839,27.1523333 L31.4772047,27.3098 L31.4796672,27.4723333 L31.4821963,27.6373333 L31.4772047,27.8073333 L31.4696839,27.9772667 L31.4571714,28.1522667 L31.4397338,28.3272 L31.432213,28.4348 L31.4246922,28.5573333 L31.4147088,28.6898 L31.407188,28.8322667 L31.3872213,29.1222667 L31.3747088,29.2623333 L31.3598003,29.3948667 L31.4445923,29.3324 L31.5344426,29.2649333 L31.6318802,29.1973333 L31.7341764,29.1273333 L31.8439933,29.0548667 L31.958802,28.9798 L32.0786023,28.9048 L32.2033943,28.8298 L32.333178,28.7548 L32.4654908,28.6798 L32.6002662,28.6048 L32.7400333,28.5298 L32.8822629,28.4548 L33.0244925,28.3821333 L33.1692512,28.3096667 L33.3166057,28.2422 L33.463827,28.1746667 L33.6111148,28.1097333 L33.7558735,28.0472667 L33.9031614,27.9872667 L34.0479867,27.9322667 L34.1927454,27.8822667 L34.3350416,27.8322667 L34.4747421,27.7897333 L34.61198,27.7522667 L34.7467554,27.7172667 L34.8766057,27.6897333 L35.0038602,27.6672 L35.1236606,27.6497333 L35.2409318,27.6372 L35.3532779,27.6347333 L35.4577038,27.6375333 L35.4227621,27.6800667 L35.322995,27.7950667 L35.1732446,27.97 L34.9960067,28.1824667 L34.7988686,28.4225333 L34.6040599,28.6675333 L34.509218,28.79 L34.4218968,28.9049333 L34.3420965,29.0149333 L34.272213,29.1174667 L34.2248253,29.1799333 L34.1749085,29.24 L34.12,29.3024667 L34.0625624,29.3624667 L34.0026622,29.425 L33.9401664,29.485 L33.8753411,29.545 L33.8054576,29.6050667 L33.7330449,29.6650667 L33.6581697,29.7226 L33.5783694,29.7800667 L33.4960399,29.8350667 L33.4111814,29.8900667 L33.3238602,29.9450667 L33.23401,29.9950667 L33.1415641,30.0452 L33.0442596,30.0951333 L32.9444925,30.1426 L32.8421963,30.1851333 L32.7399002,30.2276667 L32.6300832,30.2702 L32.5202662,30.3077333 L32.4079201,30.3426667 L32.2905158,30.3752 L32.1732446,30.4051333 L32.0509817,30.4326 L31.9261897,30.4576667 L31.8013977,30.4776667 L31.671614,30.4951333 L31.5392346,30.5101333 L31.4045258,30.5201333 L31.2672879,30.5276667 L31.2049251,30.5226 L31.1275208,30.5201333 L31.0427288,30.5176 L30.9553411,30.5201333 L30.7655907,30.5201333 L30.7381697,30.5176 L30.7156739,30.5150667 L30.7006988,30.5100667 L29.570183,31.6226 L29.2432612,31.3600667 L30.3239268,30.1826 L30.2839933,30.1100667 L30.2490516,30.0325333 L30.2166389,29.9474667 L30.1891514,29.8549333 L30.1641265,29.7574667 L30.1441597,29.6549333 L30.1291847,29.5474667 L30.1142762,29.4374667 L30.1042928,29.3225333 L30.096772,29.2049333 L30.0917804,29.0824667 L30.0917804,28.8350667 L30.096772,28.7075333 L30.1017637,28.58 L30.1092845,28.45 L30.1217304,28.3224667 L30.1342429,28.195 L30.1466889,28.0674667 L30.1641265,27.9424667 L30.1816306,27.8174667 L30.2215641,27.5774 L30.2664892,27.3524667 L30.2915141,27.245 L30.3164725,27.1424667 L30.3414975,27.045 L30.3664559,26.9524667 L30.3938769,26.865 L30.4212978,26.7874 L30.4487188,26.7149333 L30.5186023,26.5374 L30.5809651,26.3624667 L30.6383361,26.1924667 L30.6933111,26.0274667 L30.7406988,25.8698667 L30.7830948,25.7224 L30.8231614,25.5798667 L30.8556406,25.4498667 L30.8855241,25.3299333 L30.9104825,25.2249333 L30.9304493,25.1298667 L30.9478869,25.0498667 L30.9603328,24.9874 L30.9678536,24.9398667 L30.9729118,24.9124 L30.9753744,24.9024 Z M9.39633943,24.9023333 L9.398802,24.9123333 L9.40386023,24.9398 L9.41377704,24.9873333 L9.42622296,25.0498 L9.441198,25.1298 L9.46369384,25.2248667 L9.48865225,25.3298667 L9.51607321,25.4498 L9.55101498,25.5798 L9.58848586,25.7223333 L9.63334443,25.8698 L9.68073211,26.0274 L9.73317804,26.1924 L9.79061564,26.3624 L9.85544093,26.5373333 L9.92279534,26.7148667 L9.95021631,26.7873333 L9.97763727,26.8649333 L10.0050582,26.9524 L10.0326123,27.0449333 L10.0575707,27.1424 L10.0825957,27.2449333 L10.1050915,27.3524 L10.1300499,27.4624 L10.1525458,27.5773333 L10.1924792,27.8174 L10.2099168,27.9424 L10.2248918,28.0674 L10.2398669,28.1949333 L10.2523128,28.3224 L10.2622962,28.4499333 L10.269817,28.5799333 L10.2773378,28.7074667 L10.2798003,28.835 L10.2823295,28.9599333 L10.2798003,29.0824667 L10.2748087,29.2049333 L10.2672879,29.3225333 L10.257371,29.4374667 L10.2448586,29.5474667 L10.227421,29.6549333 L10.2074542,29.7574667 L10.1824293,29.8549333 L10.1550083,29.9474667 L10.1251248,30.0325333 L10.090183,30.1100667 L10.0502496,30.1826 L11.1308486,31.3600667 L10.8038602,31.6226 L9.67334443,30.5100667 L9.65584027,30.5150667 L9.63334443,30.5176 L9.60592346,30.5201333 L9.41630616,30.5201333 L9.33144759,30.5176 L9.24665557,30.5201333 L9.16918469,30.5226 L9.10429285,30.5276667 L8.96705491,30.5201333 L8.83234609,30.5101333 L8.7025624,30.4951333 L8.5727787,30.4776667 L8.44545757,30.4576667 L8.32053245,30.4326 L8.20079867,30.4051333 L8.08099834,30.3752 L7.96618968,30.3426667 L7.85144759,30.3077333 L7.74156406,30.2702 L7.63414309,30.2276667 L7.52938436,30.1851333 L7.42702163,30.1426 L7.32725458,30.0951333 L7.13757072,29.9950667 L7.04772047,29.9450667 L6.96039933,29.8900667 L6.87554077,29.8350667 L6.79314476,29.7800667 L6.71574043,29.7226 L6.64086522,29.6650667 L6.56845258,29.6050667 L6.49856905,29.545 L6.43121464,29.485 L6.36885191,29.425 L6.30895175,29.3624667 L6.25151414,29.3024667 L6.19913478,29.24 L6.14921797,29.1799333 L6.10183028,29.1174667 L6.03181364,29.0149333 L5.95194676,28.9049333 L5.86209651,28.79 L5.76978369,28.6675333 L5.57257903,28.4225333 L5.37790349,28.1824667 L5.19813644,27.97 L5.05084859,27.7950667 L4.95108153,27.6800667 L4.91361065,27.6375333 L5.02103161,27.6346667 L5.13091514,27.6371333 L5.24825291,27.6496667 L5.37051581,27.6671333 L5.49783694,27.6896667 L5.62762063,27.7172 L5.75986689,27.7522 L5.89710483,27.7896667 L6.03687188,27.8322 L6.17923461,27.8822 L6.32399334,27.9322 L6.46875208,27.9872 L6.61597338,28.0472 L6.76326123,28.1096667 L6.91054908,28.1746 L7.05783694,28.2421333 L7.20259567,28.3096 L7.34735441,28.3820667 L7.49211314,28.4547333 L7.6318802,28.5297333 L7.77171381,28.6047333 L8.041198,28.7547333 L8.16851913,28.8297333 L8.29324459,28.9047333 L8.41304493,28.9797333 L8.52792013,29.0548 L8.6377371,29.1272667 L8.7425624,29.1972667 L8.83986689,29.2648667 L8.92971714,29.3323333 L9.01204659,29.3948 L8.99960067,29.2622667 L8.98708819,29.1222 L8.96712146,28.8322 L8.9571381,28.6897333 L8.9496173,28.5572667 L8.94209651,28.4347333 L8.93457571,28.3271333 L8.9171381,28.1522 L8.90462562,27.9772 L8.89464226,27.8072667 L8.89211314,27.6372667 L8.89211314,27.4722667 L8.89717138,27.3097333 L8.90462562,27.1522667 L8.91460899,26.9948 L8.92958403,26.8448667 L8.94455907,26.6972667 L8.96452579,26.5522667 L8.98695507,26.4148 L9.00945092,26.2798667 L9.03194676,26.1498667 L9.05936772,26.0248667 L9.08432612,25.9072667 L9.11174709,25.7923333 L9.13916805,25.6848 L9.16658902,25.5823333 L9.19400998,25.4873333 L9.24658902,25.3173333 L9.29397671,25.1722667 L9.33637271,25.0572667 L9.36885191,24.9723333 L9.38881864,24.9198 L9.39633943,24.9023333 Z M20.0135108,9.065 L20.5726456,9.08 L21.126589,9.12253333 L21.6707488,9.19253333 L22.2073877,9.2876 L22.7364393,9.41006667 L23.2531115,9.56 L23.7598003,9.73246667 L24.2564393,9.92746667 L24.7381697,10.1475333 L25.2097837,10.39 L25.6666223,10.6524 L26.1084193,10.9374667 L26.5377038,11.2424667 L26.9495507,11.5674 L27.3462895,11.9124 L27.7257238,12.2748667 L28.0875874,12.6548667 L28.4320133,13.0523333 L28.756406,13.4648667 L29.0608985,13.8948 L29.3454908,14.3374 L29.6075208,14.7948667 L29.849584,15.2674 L30.0692845,15.7499333 L30.2639601,16.2474 L30.4361398,16.7549333 L30.5858902,17.2724 L30.7081531,17.8024 L30.8030616,18.3398667 L30.8730116,18.8849333 L30.9154077,19.4398667 L30.9303827,19.9998667 L30.9154077,20.5624 L30.8730116,21.1148667 L30.8030616,21.6624667 L30.7080865,22.2 L30.5858236,22.7274667 L30.4360732,23.245 L30.2638935,23.7525333 L30.069218,24.25 L29.8495175,24.7325333 L29.6074542,25.2049333 L29.3454243,25.6624667 L29.0608319,26.1075333 L28.7563394,26.535 L28.4319468,26.9475333 L28.0875208,27.345 L27.7256572,27.7250667 L27.346223,28.0875333 L26.9494842,28.4326 L26.5376373,28.7575333 L26.1083527,29.0625333 L25.6665557,29.3476 L25.2097171,29.6126 L24.7381032,29.8525333 L24.2563727,30.0726 L23.7597338,30.2700667 L23.2530449,30.4425333 L22.7363727,30.59 L22.2073211,30.7124667 L21.6706822,30.8074667 L21.1265225,30.8776 L20.572579,30.9200667 L20.0134443,30.9350667 L19.4518469,30.9200667 L18.9003661,30.8776 L18.3537438,30.8074667 L17.8171048,30.7124667 L17.2905158,30.59 L16.7738436,30.4425333 L16.2671547,30.2700667 L15.7705158,30.0726 L15.2888519,29.8525333 L14.8170383,29.6126 L14.3603993,29.3476 L13.9160732,29.0625333 L13.4893178,28.7575333 L13.0774709,28.4326 L12.6807321,28.0875333 L12.3012978,27.7250667 L11.9395008,27.345 L11.5950083,26.9475333 L11.2706156,26.535 L10.9661231,26.1075333 L10.6815308,25.6624667 L10.4169717,25.2049333 L10.1774376,24.7325333 L9.9577371,24.25 L9.760599,23.7525333 L9.5884193,23.245 L9.44113145,22.7274667 L9.31886855,22.2 L9.22396007,21.6625333 L9.15407654,21.1149333 L9.11168053,20.5624667 L9.09670549,20 L9.11161398,19.44 L9.15400998,18.8850667 L9.22389351,18.34 L9.318802,17.8025333 L9.44106489,17.2725333 L9.58835275,16.7550667 L9.76053245,16.2475333 L9.95767055,15.7500667 L10.177371,15.2675333 L10.4169052,14.795 L10.6814642,14.3375333 L10.9660566,13.8949333 L11.2705491,13.465 L11.5949418,13.0524667 L11.9394343,12.655 L12.3012313,12.275 L12.6806656,11.9125333 L13.0774043,11.5675333 L13.4892512,11.2426 L13.9160067,10.9376 L14.3603328,10.6525333 L14.8169717,10.3901333 L15.2887854,10.1476667 L15.7704493,9.9276 L16.2670882,9.7326 L16.773777,9.56013333 L17.2904493,9.4102 L17.8170383,9.28773333 L18.3536772,9.19266667 L18.9002995,9.12266667 L19.4517804,9.08013333 L20.0135108,9.065 Z M32.3252579,21.9200667 L32.3352413,21.9300667 L32.3651248,21.9575333 L32.4126456,22.0076 L32.4750083,22.0776 L32.5099501,22.1201333 L32.5498835,22.1701333 L32.589817,22.2226 L32.632213,22.2801333 L32.6771381,22.3450667 L32.7245258,22.4150667 L32.7719135,22.4900667 L32.8193012,22.5700667 L32.869218,22.6550667 L32.9166057,22.7475333 L32.9665225,22.8451333 L33.0139101,22.9476 L33.0612978,23.0576 L33.1086855,23.1701333 L33.1536106,23.2900667 L33.1960067,23.4176 L33.2385358,23.5500667 L33.2759401,23.6876 L33.313411,23.8301333 L33.3458236,23.9800667 L33.3757737,24.1375333 L33.4031947,24.3000667 L33.4256905,24.4676 L33.4431281,24.6426 L33.4481198,24.6925333 L33.453178,24.7525333 L33.4581697,24.8174667 L33.4606988,24.8874667 L33.4631614,25.0399333 L33.4656905,25.2049333 L33.4656905,25.3725333 L33.4682196,25.535 L33.4732113,25.6899333 L33.4831281,25.8274667 L33.6228952,25.6649333 L33.7851581,25.4874667 L33.8699501,25.3949333 L33.9623295,25.2974667 L34.0572379,25.1999333 L34.1545424,25.0999333 L34.2568386,25 L34.3591348,24.9 L34.4664226,24.7975333 L34.5762396,24.6976 L34.6885857,24.5976 L34.8034609,24.4976667 L34.9182696,24.4000667 L35.0355408,24.3050667 L35.152812,24.2100667 L35.2700166,24.1200667 L35.389817,24.0325333 L35.5096173,23.9500667 L35.6294842,23.8700667 L35.7492845,23.7950667 L35.8690183,23.7250667 L35.9862895,23.6600667 L36.1035607,23.6024667 L36.2183694,23.55 L36.3331115,23.505 L36.4454576,23.465 L36.5552745,23.435 L36.6650915,23.4124667 L36.7699168,23.3975333 L36.8728785,23.3924667 L36.8629617,23.4175333 L36.8380033,23.4875333 L36.7906156,23.605 L36.7257903,23.7676 L36.6384027,23.9750667 L36.5336439,24.2225333 L36.4037937,24.5150667 L36.2539767,24.845 L36.2191015,24.915 L36.1791015,24.985 L36.1367055,25.0574667 L36.0867887,25.13 L36.0343428,25.2024667 L35.9794343,25.2775333 L35.9195341,25.3525333 L35.8571714,25.4250667 L35.789817,25.5000667 L35.7199334,25.5726 L35.6450582,25.6450667 L35.5700499,25.7176 L35.4103827,25.8575333 L35.3280532,25.925 L35.2407321,25.9925333 L35.153411,26.0550667 L35.0660233,26.1175333 L34.976173,26.1775333 L34.8838602,26.235 L34.7914143,26.29 L34.6965724,26.3425333 L34.6017304,26.3924667 L34.5068885,26.4374667 L34.41198,26.48 L34.3171381,26.5174667 L34.2198336,26.5524667 L34.1249917,26.5824667 L34.0301498,26.6074667 L33.9352413,26.63 L33.8404659,26.645 L33.7480865,26.6574667 L33.6881864,26.66 L33.4935774,26.66 L33.4312146,26.6574667 L33.373777,26.6549333 L33.3289185,26.6524667 L33.2914476,26.6499333 L32.3279867,28.1749333 L31.9536106,27.985 L32.8571048,26.405 L32.8021963,26.3449333 L32.7522795,26.28 L32.7048918,26.21 L32.6575042,26.135 L32.6150416,26.0574667 L32.572579,25.9748667 L32.5326456,25.8899333 L32.4627621,25.7099333 L32.4303494,25.6174 L32.3978037,25.5199333 L32.3703827,25.4224667 L32.3203993,25.2225333 L32.3004326,25.1199333 L32.2804659,25.0174667 L32.2629617,24.915 L32.2479867,24.8125333 L32.2330116,24.7100667 L32.2230283,24.6076 L32.2130449,24.5051333 L32.2055241,24.405 L32.2005324,24.3050667 L32.1980699,24.2076 L32.1955408,24.1101333 L32.1980699,24.0176 L32.2005324,23.9251333 L32.2055241,23.8376667 L32.2105824,23.7501333 L32.2205657,23.6676667 L32.2305491,23.5901333 L32.242995,23.5151333 L32.2729451,23.3301333 L32.2979035,23.1552 L32.3154077,22.9926667 L32.3303161,22.8377333 L32.3402995,22.6976 L32.3478203,22.5651333 L32.3502829,22.4451333 L32.3502829,22.2426 L32.3452912,22.1576667 L32.3428286,22.0851333 L32.3377704,22.0251333 L32.327787,21.9475333 L32.3252579,21.9200667 Z M8.04858569,21.9200667 L8.04359401,21.9475333 L8.03607321,22.0251333 L8.03101498,22.0851333 L8.02602329,22.1576667 L8.02356073,22.2426 L8.02103161,22.3376667 L8.02103161,22.4451333 L8.02602329,22.5651333 L8.03101498,22.6976 L8.04099834,22.8377333 L8.05597338,22.9926667 L8.0759401,23.1552 L8.1008985,23.3301333 L8.13084859,23.5151333 L8.14329451,23.5901333 L8.15327787,23.6676667 L8.16079867,23.7501333 L8.16831947,23.8376667 L8.17331115,23.9251333 L8.17577371,24.0176 L8.17577371,24.2076 L8.17078203,24.3050667 L8.16579035,24.405 L8.15826955,24.5051333 L8.15074875,24.6076 L8.13830283,24.7100667 L8.12585691,24.8125333 L8.11088186,24.915 L8.0933777,25.0174667 L8.07341098,25.1199333 L8.0509817,25.2225333 L8.02848586,25.3225333 L8.00106489,25.4224667 L7.97364393,25.5199333 L7.94369384,25.6174 L7.9112812,25.7099333 L7.87633943,25.7999333 L7.83886855,25.8899333 L7.79893511,25.9748667 L7.75900166,26.0574667 L7.71407654,26.135 L7.66915141,26.21 L7.61916805,26.28 L7.56925125,26.3449333 L7.51680532,26.405 L8.41777038,27.985 L8.04592346,28.1749333 L7.08006656,26.6499333 L7.04512479,26.6524667 L6.9977371,26.6549333 L6.94282862,26.6574667 L6.88046589,26.66 L6.68326123,26.66 L6.62336106,26.6574667 L6.53104825,26.645 L6.43620632,26.63 L6.34382696,26.6074667 L6.24898502,26.5824667 L6.15168053,26.5524667 L6.0568386,26.5174667 L5.96193012,26.48 L5.86462562,26.4374667 L5.76978369,26.3924667 L5.67487521,26.3425333 L5.5825624,26.29 L5.49018303,26.235 L5.39780366,26.1775333 L5.30801997,26.1175333 L5.21803661,26.0550667 L5.13071547,25.9925333 L5.04585691,25.925 L4.96352745,25.8575333 L4.881198,25.7875333 L4.80379368,25.7176 L4.72638935,25.6450667 L4.65404326,25.5726 L4.58415973,25.5000667 L4.51680532,25.4250667 L4.4544426,25.3525333 L4.39447587,25.2775333 L4.33703827,25.2024667 L4.2846589,25.13 L4.23720466,25.0574667 L4.19234609,24.985 L4.15487521,24.915 L4.12,24.845 L3.96778702,24.5150667 L3.84046589,24.2225333 L3.73317804,23.9750667 L3.64831947,23.7676 L3.58083195,23.605 L3.53590682,23.4875333 L3.50848586,23.4175333 L3.50096506,23.3924667 L3.60332779,23.3975333 L3.70821963,23.4124667 L3.81557404,23.435 L3.92539101,23.465 L4.03767055,23.505 L4.1524792,23.55 L4.26975042,23.6024667 L4.38702163,23.6600667 L4.5043594,23.7250667 L4.62415973,23.7950667 L4.74143095,23.8700667 L4.86123128,23.9500667 L4.98096506,24.0325333 L5.10076539,24.1200667 L5.22049917,24.2100667 L5.33790349,24.3050667 L5.45517471,24.4000667 L5.56998336,24.4976667 L5.79460899,24.6976 L5.90442596,24.7975333 L6.01171381,24.9 L6.11667221,25 L6.21903494,25.1 L6.31633943,25.2 L6.41104825,25.2974667 L6.5008985,25.3949333 L6.58821963,25.4874667 L6.74795341,25.6649333 L6.89031614,25.8274667 L6.89783694,25.6899333 L6.90282862,25.535 L6.90535774,25.3725333 L6.90788686,25.2049333 L6.91034942,25.0399333 L6.91287854,24.8874667 L6.91540765,24.8174667 L6.91787022,24.7525333 L6.92292845,24.6925333 L6.92792013,24.6426 L6.94788686,24.4676 L6.9703827,24.3000667 L6.9953411,24.1375333 L7.02529118,23.9800667 L7.06023295,23.8301333 L7.09517471,23.6876 L7.13510815,23.5500667 L7.1750416,23.4176 L7.21996672,23.2900667 L7.26489185,23.1701333 L7.30981697,23.0576 L7.35727121,22.9476 L7.40712146,22.8451333 L7.45450915,22.7475333 L7.50442596,22.6550667 L7.55181364,22.5700667 L7.60173045,22.4900667 L7.64925125,22.4150667 L7.69417637,22.3450667 L7.7391015,22.2801333 L7.78156406,22.2226 L7.82402662,22.1701333 L7.86143095,22.1201333 L7.89890183,22.0776 L7.958802,22.0076 L8.00618968,21.9575333 L8.03860233,21.9300667 L8.04858569,21.9200667 Z M25.1748419,27.36 L21.4485857,27.36 L21.4485857,28.045 L24.5209983,28.045 L25.1748419,27.36 Z M18.5783028,27.36 L14.8521131,27.36 L15.5059567,28.045 L18.5783028,28.045 L18.5783028,27.36 Z M26.5525458,25.9124667 L13.4743428,25.9124667 L14.1283195,26.5975333 L25.8986356,26.5975333 L26.5525458,25.9124667 Z M27.9302496,24.4626 L22.3520799,24.4626 L22.3520799,25.15 L27.2763394,25.15 L27.9302496,24.4626 Z M17.6748087,24.4626 L12.0966389,24.4626 L12.7505491,25.15 L17.6748087,25.15 L17.6748087,24.4626 Z M36.9627288,18.385 L36.9627288,18.5949333 L36.9577371,18.7574667 L36.9527454,18.9625333 L36.9402995,19.2125333 L36.9253245,19.5049333 L36.9028286,19.8375333 L36.8953078,19.91 L36.8853245,19.985 L36.8703494,20.0600667 L36.8528453,20.1400667 L36.830416,20.22 L36.8054576,20.3024667 L36.7780366,20.3874667 L36.7480865,20.4725333 L36.7132113,20.5575333 L36.6757404,20.645 L36.635807,20.7325333 L36.5933444,20.82 L36.5484193,20.9074667 L36.5010316,20.995 L36.4486522,21.0824667 L36.3962729,21.1674667 L36.3412313,21.2525333 L36.2837937,21.3375333 L36.2238935,21.42 L36.1639933,21.4999333 L36.1016306,21.5774667 L36.0367388,21.655 L35.9693844,21.73 L35.8296173,21.87 L35.7597338,21.9349333 L35.6873877,21.9974 L35.6125125,22.055 L35.5375042,22.1100667 L35.462629,22.1625333 L35.3852246,22.2074667 L35.3078203,22.25 L35.2529118,22.2725333 L35.1905491,22.3 L35.1231947,22.325 L35.0533111,22.3524667 L34.9859567,22.375 L34.9260566,22.3975333 L34.8786689,22.4125333 L34.8437271,22.425 L34.648985,24.07 L34.2571714,24.035 L34.4393344,22.34 L34.37198,22.3075333 L34.3071547,22.27 L34.2397338,22.2250667 L34.1749085,22.1776 L34.1100166,22.1250667 L34.0476539,22.0700667 L33.9852246,22.0100667 L33.9228619,21.9474667 L33.8604326,21.8825333 L33.8005324,21.8125333 L33.7431614,21.7425333 L33.6857238,21.6675333 L33.6308153,21.5925333 L33.5759068,21.515 L33.5209983,21.435 L33.4710815,21.3525333 L33.4211647,21.2725333 L33.373777,21.1899333 L33.3263894,21.105 L33.2839268,21.0225333 L33.2415308,20.9375333 L33.2015308,20.8550667 L33.1639933,20.7700667 L33.1290516,20.6876 L33.0941098,20.6051333 L33.0642263,20.5252 L33.0368053,20.4476667 L33.0118469,20.3701333 L32.9868885,20.2926 L32.9669218,20.2200667 L32.9494176,20.1500667 L32.9369717,20.0801333 L32.90203,19.9126667 L32.8646256,19.7552 L32.8271547,19.6076667 L32.7896839,19.4726 L32.7497504,19.3476 L32.7123461,19.2326667 L32.6748752,19.1302 L32.6399334,19.0376667 L32.6049917,18.9552 L32.5751082,18.8852 L32.5476872,18.8252 L32.5227288,18.7750667 L32.487787,18.7101333 L32.4778037,18.6876 L32.4902496,18.6926 L32.5251913,18.7076 L32.5850915,18.7326667 L32.6624958,18.7726667 L32.707421,18.7976667 L32.7573378,18.8252667 L32.8122463,18.8552 L32.8696839,18.8927333 L32.929584,18.9302667 L32.9919468,18.9752 L33.0593012,19.0226667 L33.1291847,19.0752 L33.1990682,19.1302 L33.2740765,19.1926667 L33.3489517,19.2601333 L33.4263561,19.3301333 L33.5037604,19.4076 L33.5835607,19.4900667 L33.6634276,19.5750667 L33.7432945,19.6701333 L33.8230948,19.7676 L33.9029617,19.8726 L33.9827621,19.9826 L34.0626955,20.1000667 L34.1400998,20.2225333 L34.2175042,20.3525333 L34.2948419,20.4876 L34.3672546,20.6301333 L34.4146423,20.7226 L34.4645591,20.8351333 L34.5169384,20.9651333 L34.574376,21.1051333 L34.6318136,21.2477333 L34.6891847,21.3877333 L34.7440932,21.5177333 L34.7991348,21.6326667 L34.8664892,21.4452 L34.9488186,21.2377333 L34.9937438,21.1276667 L35.0411314,21.0151333 L35.0910483,20.8976667 L35.1459567,20.7802 L35.2008652,20.6602 L35.2582363,20.5377333 L35.3181364,20.4127333 L35.3829617,20.2901333 L35.4453245,20.1651333 L35.5126789,20.0401333 L35.5825624,19.9176667 L35.652579,19.7952 L35.7249251,19.6752 L35.7998003,19.5576667 L35.8747421,19.4426667 L35.9520799,19.3277333 L36.0319468,19.2202667 L36.1117471,19.1152667 L36.191614,19.0152667 L36.2739434,18.9178 L36.3562729,18.8278 L36.441198,18.7427333 L36.5260566,18.6652 L36.6133777,18.5927333 L36.7006988,18.5302667 L36.7880865,18.4727333 L36.8754077,18.4252667 L36.9627288,18.385 Z M3.40865225,18.385 L3.49830283,18.4252667 L3.58562396,18.4727333 L3.6730782,18.5302667 L3.76046589,18.5927333 L3.8452579,18.6652 L3.93011647,18.7427333 L4.01497504,18.8278 L4.09730449,18.9178 L4.17963394,19.0152667 L4.26196339,19.1152667 L4.34176373,19.2202667 L4.41916805,19.3277333 L4.49663894,19.4426667 L4.57397671,19.5576667 L4.64638935,19.6752 L4.71873544,19.7952 L4.79114809,19.9176667 L4.8585025,20.0401333 L4.92585691,20.1651333 L4.99074875,20.2901333 L5.05311148,20.4127333 L5.11301165,20.5377333 L5.17044925,20.6602 L5.2278203,20.7802 L5.33024958,21.0152 L5.42262895,21.2377333 L5.5049584,21.4452 L5.57484193,21.6326667 L5.6272213,21.5177333 L5.6846589,21.3877333 L5.74202995,21.2477333 L5.79946755,21.1051333 L5.85437604,20.9651333 L5.90928453,20.8351333 L5.93430948,20.7776 L5.95926789,20.7226 L5.98176373,20.6726 L6.00419301,20.6301333 L6.07913478,20.4876 L6.15400998,20.3525333 L6.23141431,20.2225333 L6.3112812,20.1000667 L6.39108153,19.9826 L6.47088186,19.8726 L6.55074875,19.7676 L6.63054908,19.6701333 L6.71041597,19.5750667 L6.79021631,19.4900667 L6.86768719,19.4076 L6.94748752,19.3301333 L7.02236273,19.2601333 L7.09976705,19.1926667 L7.17211314,19.1302 L7.24452579,19.0752 L7.3118802,19.0226667 L7.37923461,18.9752 L7.44412646,18.9302667 L7.50402662,18.8927333 L7.56146423,18.8552 L7.61384359,18.8252667 L7.66389351,18.7976667 L7.7112812,18.7726667 L7.78868552,18.7326667 L7.84605657,18.7076 L7.88352745,18.6926 L7.89597338,18.6876 L7.88352745,18.7101333 L7.84858569,18.7750667 L7.82608985,18.8252 L7.79866889,18.8852 L7.76625624,18.9552 L7.73384359,19.0376667 L7.69890183,19.1302 L7.66143095,19.2326667 L7.62143095,19.3476 L7.58402662,19.4726 L7.54402662,19.6076667 L7.5066223,19.7552 L7.47168053,19.9126667 L7.43673877,20.0801333 L7.42176373,20.1500667 L7.40432612,20.2200667 L7.3843594,20.2926 L7.36186356,20.3701333 L7.33690516,20.4476667 L7.30702163,20.5252 L7.27707155,20.6051333 L7.2446589,20.6876 L7.20971714,20.7700667 L7.17224626,20.8550667 L7.13231281,20.9375333 L7.08985025,21.0225333 L7.04499168,21.105 L7.00006656,21.1899333 L6.95021631,21.2725333 L6.90276206,21.3525333 L6.8503827,21.435 L6.79787022,21.515 L6.74296173,21.5925333 L6.68805324,21.6675333 L6.63061564,21.7425333 L6.57071547,21.8125333 L6.51081531,21.8825333 L6.45091514,21.9474667 L6.38855241,22.0100667 L6.32618968,22.0700667 L6.26136439,22.1250667 L6.19647255,22.1776 L6.13164725,22.2250667 L6.06675541,22.27 L5.99926789,22.3075333 L5.93191348,22.34 L6.11680532,24.035 L5.72492512,24.07 L5.53024958,22.425 L5.49530782,22.4125333 L5.44545757,22.3975333 L5.3855574,22.375 L5.32073211,22.3524667 L5.25084859,22.325 L5.18336106,22.3 L5.11846922,22.2725333 L5.06608985,22.25 L4.98868552,22.2074667 L4.9112812,22.1625333 L4.83394343,22.1100667 L4.75900166,22.055 L4.68665557,21.9974 L4.61430948,21.9349333 L4.54189684,21.87 L4.47201331,21.8 L4.40452579,21.73 L4.33717138,21.655 L4.27227953,21.5774667 L4.20991681,21.4999333 L4.14755408,21.42 L4.08758735,21.3375333 L4.03021631,21.2525333 L3.97530782,21.1674667 L3.9228619,21.0824667 L3.87294509,20.995 L3.8255574,20.9074667 L3.77816972,20.82 L3.73570715,20.7325333 L3.69577371,20.645 L3.65836938,20.5575333 L3.62582363,20.4725333 L3.59334443,20.3874667 L3.56592346,20.3024667 L3.54096506,20.22 L3.50103161,20.0600667 L3.48851913,19.985 L3.47607321,19.91 L3.47108153,19.8375333 L3.44858569,19.5049333 L3.43114809,19.2125333 L3.42116473,18.9625333 L3.41364393,18.7574667 L3.41118136,18.5949333 L3.40865225,18.4774667 L3.40865225,18.385 Z M20.0135108,17.7424667 L16.6466556,21.8299333 L14.5276539,18.5124667 L11.3454243,23.4899333 L28.6815308,23.4899333 L25.4993677,18.5124667 L23.3803661,21.8299333 L20.0135108,17.7424667 Z M4.81883527,13.3350667 L4.88851913,13.4027333 L4.95334443,13.4777333 L5.01823627,13.5602 L5.07813644,13.6502 L5.13557404,13.7452 L5.18795341,13.8476667 L5.24046589,13.9552 L5.28785358,14.0702667 L5.33530782,14.1877333 L5.37770383,14.3102 L5.41770383,14.4352 L5.45510815,14.5652 L5.49004992,14.6976667 L5.52246256,14.8302 L5.55241265,14.9676667 L5.58236273,15.1051333 L5.60732113,15.2426 L5.62981697,15.3826 L5.65231281,15.5226 L5.67227953,15.6602 L5.68971714,15.7976667 L5.70469218,15.9351333 L5.7171381,16.0700667 L5.72958403,16.2025333 L5.73956739,16.3325333 L5.74948419,16.4576667 L5.75700499,16.5801333 L5.76206323,16.7001333 L5.76958403,16.9225333 L5.77204659,17.1225333 L5.86189684,17.0325333 L5.95920133,16.9276 L6.0591015,16.8150667 L6.16139767,16.7000667 L6.25870216,16.5875333 L6.35354409,16.4850667 L6.39846922,16.4376 L6.43840266,16.3925333 L6.47833611,16.355 L6.51327787,16.3225333 L6.63054908,16.2125333 L6.7478203,16.11 L6.86269551,16.015 L6.97750416,15.925 L7.09231281,15.8400667 L7.20459235,15.7625333 L7.31440932,15.6925333 L7.42422629,15.6250667 L7.52905158,15.565 L7.63381032,15.51 L7.7362396,15.46 L7.83607321,15.4125333 L7.93091514,15.3725333 L8.02329451,15.335 L8.11314476,15.3 L8.20046589,15.2725333 L8.28279534,15.2450667 L8.36266223,15.2225333 L8.43520799,15.2025333 L8.50755408,15.1875333 L8.63487521,15.1600667 L8.74216306,15.1426 L8.82702163,15.1326 L8.89184692,15.1276 L8.93178037,15.1276 L8.94429285,15.1251333 L8.92432612,15.1426 L8.8718802,15.1926 L8.83194676,15.2300667 L8.78702163,15.2775333 L8.73211314,15.3350667 L8.6747421,15.4000667 L8.60985025,15.4750667 L8.53996672,15.56 L8.46509151,15.6550667 L8.38768719,15.7600667 L8.30535774,15.8750667 L8.22049917,16 L8.1356406,16.1374667 L8.04579035,16.285 L8.00838602,16.3425333 L7.96845258,16.4050667 L7.92352745,16.4650667 L7.87361065,16.5250667 L7.82123128,16.5875333 L7.76379368,16.65 L7.70389351,16.7124667 L7.64153078,16.7749333 L7.57404326,16.8374 L7.50668885,16.8998667 L7.36193012,17.0198667 L7.28452579,17.0798667 L7.20712146,17.1373333 L7.12725458,17.1948667 L7.04738769,17.25 L6.96505824,17.305 L6.88272879,17.3574667 L6.80033278,17.4074667 L6.71547421,17.4549333 L6.63061564,17.5024 L6.54582363,17.5449333 L6.46096506,17.5849333 L6.37610649,17.6224667 L6.29377704,17.6574667 L6.20891847,17.6899333 L6.12658902,17.7174 L6.04672213,17.7424 L5.96678869,17.7649333 L5.8869218,17.7799333 L5.81204659,17.7949333 L5.73717138,17.8024667 L5.7321797,19.5874 L5.3228619,19.5374667 L5.32792013,17.745 L5.28053245,17.71 L5.22302829,17.66 L5.158203,17.6025333 L5.08579035,17.5325333 L5.02589018,17.4675333 L4.9709817,17.3975333 L4.91607321,17.3250667 L4.86362729,17.2475333 L4.81377704,17.1674667 L4.7663228,17.085 L4.72146423,17 L4.67647255,16.9099333 L4.6365391,16.8199333 L4.59913478,16.7274667 L4.56419301,16.6349333 L4.52925125,16.5399333 L4.49930116,16.4424667 L4.4718802,16.3448667 L4.44445923,16.2474 L4.42189684,16.1474 L4.399401,16.0499333 L4.38189684,15.95 L4.36445923,15.8525333 L4.35201331,15.7550667 L4.34202995,15.6576 L4.33211314,15.5625333 L4.32705491,15.4675333 L4.32206323,15.375 L4.32206323,15.285 L4.32459235,15.195 L4.32705491,15.1100667 L4.33457571,15.0276 L4.34455907,14.9476 L4.35700499,14.8700667 L4.37198003,14.795 L4.38941764,14.725 L4.479401,14.4025333 L4.56173045,14.1225333 L4.63414309,13.885 L4.69896839,13.6874667 L4.74888519,13.5350667 L4.78635607,13.4225333 L4.81131448,13.3575333 L4.81883527,13.3350667 Z M35.5550083,13.3350667 L35.5625291,13.3575333 L35.5874875,13.4225333 L35.6250915,13.5350667 L35.6750083,13.6874667 L35.737371,13.885 L35.8097837,14.1225333 L35.8946423,14.4025333 L35.9844925,14.725 L36.0019301,14.795 L36.0169052,14.8700667 L36.0268885,14.9476 L36.0368719,15.0276 L36.0443927,15.1100667 L36.0493844,15.195 L36.0493844,15.375 L36.0469218,15.4675333 L36.039401,15.5625333 L36.0318802,15.6576 L36.0194343,15.7550667 L36.0069218,15.8525333 L35.9920133,15.95 L35.97198,16.0499333 L35.9520133,16.1474 L35.9270549,16.2474 L35.9020965,16.3448667 L35.8746755,16.4424667 L35.8421963,16.5399333 L35.8097837,16.6349333 L35.7748419,16.7274667 L35.7349085,16.8199333 L35.694975,16.9099333 L35.6525125,16.9999333 L35.6075874,17.0849333 L35.5600666,17.1674 L35.5102163,17.2474667 L35.4577704,17.325 L35.4028619,17.3974667 L35.3454908,17.4674667 L35.2880532,17.5324667 L35.213178,17.6024667 L35.1482862,17.6599333 L35.0933777,17.7099333 L35.0434609,17.7449333 L35.0509817,19.5374 L34.6416639,19.5873333 L34.6366722,17.8024 L34.561797,17.7948667 L34.4843927,17.7798667 L34.4069884,17.7648667 L34.3271215,17.7423333 L34.244792,17.7173333 L34.1624626,17.6898667 L34.0801331,17.6574 L33.9951414,17.6224 L33.9102829,17.5848667 L33.8254908,17.5448667 L33.7406323,17.5023333 L33.6583028,17.4548667 L33.5734443,17.4074 L33.4886522,17.3574 L33.4063228,17.3049333 L33.3239933,17.2499333 L33.2441265,17.1948 L33.164193,17.1372667 L33.0867887,17.0798 L33.0119135,17.0198 L32.9395674,16.9598 L32.8671547,16.8998 L32.7972712,16.8373333 L32.7324459,16.7748667 L32.6700832,16.7124 L32.610183,16.6499333 L32.552812,16.5874667 L32.5003661,16.525 L32.4505158,16.465 L32.4055907,16.405 L32.3631281,16.3424667 L32.3281864,16.2849333 L32.2383361,16.1374 L32.1507488,16 L32.0659567,15.8750667 L31.9836273,15.7600667 L31.906223,15.6550667 L31.8313478,15.56 L31.7639933,15.4750667 L31.6990349,15.4 L31.6391348,15.335 L31.5866223,15.2774667 L31.5017637,15.1925333 L31.4468552,15.1425333 L31.4293511,15.1250667 L31.4418636,15.1275333 L31.481797,15.1275333 L31.5441597,15.1325333 L31.631614,15.1425333 L31.7389018,15.16 L31.866223,15.1874667 L31.9361065,15.2024667 L32.0109817,15.2224667 L32.0883195,15.245 L32.2580366,15.2999333 L32.3478869,15.3349333 L32.4402662,15.3724667 L32.5375707,15.4124667 L32.6373378,15.4599333 L32.7371714,15.5099333 L32.8419967,15.5649333 L32.9492845,15.625 L33.0566389,15.6924667 L33.1689185,15.7624667 L33.2813311,15.84 L33.3936106,15.9249333 L33.5084193,16.0149333 L33.6256905,16.1099333 L33.7429617,16.2124667 L33.8602329,16.3224667 L33.932579,16.3924667 L34.0200333,16.4850667 L34.1124126,16.5875333 L34.2121797,16.7000667 L34.3145424,16.8150667 L34.4143095,16.9276 L34.511614,17.0325333 L34.5989351,17.1225333 L34.6014642,16.9225333 L34.6089185,16.7001333 L34.6164393,16.5801333 L34.6239601,16.4576667 L34.6314809,16.3325333 L34.6413977,16.2025333 L34.6538436,16.0700667 L34.6688186,15.9351333 L34.6837937,15.7976667 L34.7012313,15.6602 L34.721198,15.5226 L34.7412313,15.3826 L34.7661897,15.2426 L34.7911481,15.1051333 L34.8187022,14.9676667 L34.8486522,14.8302 L34.8810649,14.6976667 L34.9185358,14.5652 L34.9559401,14.4352 L34.9958735,14.3102 L35.0383361,14.1877333 L35.0832612,14.0702667 L35.1306489,13.9552 L35.1830283,13.8476667 L35.2379368,13.7452 L35.2953744,13.6502 L35.3552745,13.5602 L35.4176373,13.4777333 L35.4849917,13.4027333 L35.5550083,13.3350667 Z M20.0135108,9.54753333 L19.8263561,9.55253333 L19.6416639,9.565 L19.4594343,9.59006667 L19.2797338,9.62253333 L19.1025624,9.66253333 L18.9303827,9.71253333 L18.760599,9.77006667 L18.593411,9.835 L18.4336772,9.90753333 L18.2764725,9.99 L18.1217304,10.0776 L17.9744426,10.1726 L17.832213,10.2750667 L17.6924459,10.3850667 L17.5601997,10.5000667 L17.4329451,10.62 L17.3131448,10.7475333 L17.1982696,10.8800667 L17.0884526,11.0175333 L16.9861564,11.1625333 L16.8913145,11.3100667 L16.8039933,11.4625333 L16.7241265,11.6201333 L16.6492512,11.7826 L16.5843594,11.9500667 L16.5269218,12.1175333 L16.4770715,12.2924667 L16.4370715,12.4676 L16.4045258,12.6475333 L16.3820965,12.8300667 L16.3671215,13.0175333 L16.3621298,13.2050667 L16.3671215,13.3925333 L16.3820965,13.5774667 L16.4045258,13.76 L16.4370715,13.94 L16.4770715,14.1176 L16.5269218,14.2900667 L16.5843594,14.46 L16.6492512,14.625 L16.7241265,14.7875333 L16.8039933,14.9451333 L16.8913145,15.0976 L16.9861564,15.2476 L17.0884526,15.3900667 L17.1982696,15.5275333 L17.3131448,15.6601333 L17.4329451,15.7876 L17.5601997,15.9100667 L17.6924459,16.0250667 L17.832213,16.1325333 L17.9744426,16.235 L18.1217304,16.3300667 L18.2764725,16.4201333 L18.4336772,16.5001333 L18.593411,16.5726 L18.760599,16.6376 L18.9303827,16.6976 L19.1025624,16.7450667 L19.2797338,16.7876 L19.4594343,16.8200667 L19.6416639,16.8426 L19.8263561,16.8576 L20.0135108,16.8600667 L20.2006656,16.8576 L20.3852912,16.8426 L20.5675208,16.8200667 L20.7472213,16.7876 L20.9244592,16.7450667 L21.0966389,16.6976 L21.2664226,16.6376 L21.4311481,16.5726 L21.5933444,16.5001333 L21.7506156,16.4201333 L21.9027621,16.3300667 L22.052579,16.235 L22.1948752,16.1325333 L22.3321131,16.0250667 L22.466822,15.9100667 L22.5941431,15.7876 L22.7138769,15.6601333 L22.8287521,15.5275333 L22.9361065,15.3900667 L23.0384027,15.2476 L23.1332446,15.0976 L23.2230948,14.9451333 L23.3029617,14.7875333 L23.3778369,14.625 L23.4426622,14.46 L23.5000998,14.2900667 L23.5500166,14.1176 L23.5899501,13.94 L23.6224958,13.76 L23.6449917,13.5774667 L23.6599667,13.3925333 L23.6649584,13.2050667 L23.6599667,13.0175333 L23.6449917,12.8300667 L23.6224958,12.6475333 L23.5899501,12.4676 L23.5500166,12.2924667 L23.5000998,12.1175333 L23.4426622,11.9500667 L23.3778369,11.7826 L23.3029617,11.6201333 L23.2230948,11.4625333 L23.1332446,11.3100667 L23.0384027,11.1625333 L22.9361065,11.0175333 L22.8287521,10.8800667 L22.7138769,10.7475333 L22.5941431,10.62 L22.466822,10.5000667 L22.3321131,10.3850667 L22.1948752,10.2750667 L22.052579,10.1726 L21.9027621,10.0776 L21.7506156,9.99 L21.5933444,9.90753333 L21.4311481,9.835 L21.2664226,9.77006667 L21.0966389,9.71253333 L20.9244592,9.66253333 L20.7472213,9.62253333 L20.5675208,9.59006667 L20.3852912,9.565 L20.2006656,9.55253333 L20.0135108,9.54753333 Z M33.2964393,9.18993333 L33.3064226,9.20753333 L33.3338436,9.26253333 L33.3812313,9.35506667 L33.4485857,9.48506667 L33.5384359,9.65253333 L33.6457903,9.86246667 L33.7780366,10.115 L33.9302496,10.4074667 L33.9626622,10.4724667 L33.9926123,10.5399333 L34.0200998,10.6099333 L34.0450582,10.6849333 L34.0700166,10.7624667 L34.0899834,10.8425333 L34.1099501,10.925 L34.1274542,11.0074667 L34.1424293,11.0949333 L34.1548752,11.1824 L34.1673211,11.2724 L34.1748419,11.3649333 L34.1798336,11.4574667 L34.1848253,11.5499333 L34.1873544,11.645 L34.1848253,11.74 L34.1823627,11.835 L34.1748419,11.93 L34.1673211,12.025 L34.1573378,12.12 L34.1274542,12.3100667 L34.1074875,12.4025333 L34.0874542,12.4951333 L34.0624958,12.5876 L34.0350749,12.6750667 L34.0051248,12.7626 L33.972579,12.8500667 L33.9376373,12.9325333 L33.9002329,13.015 L33.8577704,13.0925333 L33.8153078,13.1700667 L33.7579368,13.2526 L33.70802,13.3226 L33.6630948,13.3826 L33.6231614,13.4300667 L34.0475208,14.8975333 L33.6581032,15.0325333 L33.2363394,13.57 L33.1613977,13.5775333 L33.0840599,13.5826 L33.004193,13.5850667 L32.9243261,13.5826 L32.8419967,13.5775333 L32.7571381,13.5725333 L32.6722795,13.5625333 L32.5849584,13.55 L32.5000998,13.5350667 L32.4102496,13.5175333 L32.3227953,13.4975333 L32.2354742,13.475 L32.145624,13.4525333 L32.0583028,13.425 L31.9709151,13.3975333 L31.883594,13.3676 L31.7962729,13.3351333 L31.7114143,13.3026 L31.6290849,13.2676 L31.5466223,13.2301333 L31.4642928,13.1924667 L31.3869551,13.1524667 L31.3095507,13.1099333 L31.2371381,13.0674667 L31.164792,13.0249333 L31.0949085,12.9799333 L31.0300166,12.935 L30.9651913,12.8875333 L30.9077537,12.8400667 L30.8503161,12.7900667 L30.7978037,12.7426 L30.750416,12.6926 L30.6331448,12.5650667 L30.5184027,12.4451333 L30.4060566,12.3300667 L30.2987687,12.2225333 L30.1015641,12.0276 L29.9293178,11.8626 L29.7870216,11.7326 L29.6772047,11.6351333 L29.6098502,11.5775333 L29.5848918,11.555 L29.5998003,11.555 L29.6398003,11.5525333 L29.7071547,11.55 L29.797005,11.5474667 L29.9093511,11.5525333 L30.044193,11.5600667 L30.1190682,11.5676 L30.1989351,11.5776 L30.2837937,11.5876 L30.3736439,11.6026 L30.4659567,11.6176667 L30.5633278,11.6376667 L30.6656905,11.6602 L30.7704493,11.6852 L30.8803328,11.7152 L30.9926789,11.7476667 L31.1099501,11.7852 L31.2296839,11.8252 L31.3494842,11.8726667 L31.4768053,11.9226667 L31.604193,11.9776667 L31.7339767,12.0376667 L31.866223,12.1026667 L32.0009318,12.1726667 L32.1381697,12.2501333 L32.2754077,12.3326 L32.3577371,12.3801333 L32.4427288,12.4302 L32.5350416,12.4826667 L32.6299501,12.5402 L32.727188,12.6002 L32.8270216,12.6602 L32.9293178,12.7226667 L33.0291514,12.7826667 L33.0166389,12.7226667 L33.0091847,12.6626667 L33.0041265,12.5977333 L32.9991348,12.5352667 L32.9966057,12.4052667 L32.9991348,12.2776667 L33.0016639,12.1527333 L33.0041265,12.0327333 L33.0016639,11.9777333 L32.9991348,11.9227333 L32.9966057,11.8727333 L32.9890849,11.8252667 L32.9466889,11.6502667 L32.9117471,11.4827333 L32.8843261,11.3227333 L32.8618303,11.1678 L32.8443261,11.0202667 L32.8343428,10.8778 L32.8293511,10.7426667 L32.8293511,10.6126667 L32.8343428,10.4902 L32.8418636,10.3727333 L32.8543095,10.2627333 L32.8692845,10.1577333 L32.8892512,10.0578 L32.909218,9.9652 L32.9341764,9.87773333 L32.9592013,9.79526667 L32.9841597,9.72026667 L33.0115807,9.64773333 L33.0415308,9.5828 L33.0689517,9.5228 L33.0988353,9.4678 L33.1263228,9.42026667 L33.1537438,9.37533333 L33.1787022,9.33533333 L33.226223,9.27033333 L33.2636273,9.2254 L33.2885857,9.20033333 L33.2964393,9.18993333 Z M7.07500832,9.18993333 L7.08505824,9.2 L7.11041597,9.2254 L7.14788686,9.27033333 L7.19281198,9.33533333 L7.22023295,9.37533333 L7.24772047,9.42026667 L7.27514143,9.4678 L7.3025624,9.5228 L7.33244592,9.5828 L7.35986689,9.64773333 L7.38728785,9.72026667 L7.41470882,9.79526667 L7.43966722,9.87773333 L7.46209651,9.9652 L7.48459235,10.0578 L7.50209651,10.1577333 L7.51700499,10.2627333 L7.52951747,10.3727333 L7.53943428,10.4902 L7.54196339,10.6126667 L7.54196339,10.7426667 L7.53690516,10.8778 L7.52698835,11.0202667 L7.51201331,11.1678 L7.48951747,11.3227333 L7.46209651,11.4827333 L7.42715474,11.6502667 L7.38475874,11.8252667 L7.37723794,11.8727333 L7.3721797,11.9227333 L7.36971714,11.9777333 L7.36971714,12.1527333 L7.37470882,12.2776667 L7.37470882,12.4052667 L7.3721797,12.5352667 L7.36971714,12.5977333 L7.3646589,12.6626667 L7.34469218,12.7826667 L7.44452579,12.7226667 L7.54429285,12.6602 L7.64425957,12.6002 L7.74156406,12.5402 L7.83886855,12.4826667 L7.9287188,12.4302 L8.01610649,12.3801333 L8.09597338,12.3326 L8.23574043,12.2501333 L8.37297837,12.1726667 L8.5078203,12.1026667 L8.64006656,12.0376667 L8.76985025,11.9776667 L8.89717138,11.9226667 L9.02189684,11.8726667 L9.14422629,11.8252 L9.26409318,11.7852 L9.37890183,11.7476667 L9.49124792,11.7152 L9.60106489,11.6852 L9.70589018,11.6602 L9.80818636,11.6376667 L9.90549085,11.6176667 L10.0003328,11.6026 L10.087787,11.5876 L10.1726456,11.5776 L10.2524459,11.5676 L10.3273211,11.5600667 L10.4620965,11.5525333 L10.5744426,11.5474667 L10.6667554,11.55 L10.7316473,11.5525333 L10.7741098,11.555 L10.7865557,11.555 L10.7640599,11.5775333 L10.6941764,11.6351333 L10.5868885,11.7326 L10.4445923,11.8626 L10.2724126,12.0276 L10.0727454,12.2225333 L9.96785358,12.3300667 L9.85550749,12.4451333 L9.74069884,12.5650667 L9.6208985,12.6926 L9.57351082,12.7426 L9.52113145,12.7900667 L9.46622296,12.8400667 L9.40625624,12.8875333 L9.34389351,12.935 L9.2765391,12.9799333 L9.20905158,13.0249333 L9.13670549,13.0674667 L9.06183028,13.1099333 L8.98688852,13.1524667 L8.90708819,13.1924667 L8.8272213,13.2301333 L8.74489185,13.2676 L8.66003328,13.3026 L8.57517471,13.3351333 L8.4903827,13.3676 L8.40292845,13.3975333 L8.3130782,13.425 L8.22569052,13.4525333 L8.13836938,13.475 L8.04851913,13.4975333 L7.961198,13.5175333 L7.87381032,13.5350667 L7.78648918,13.55 L7.69916805,13.5625333 L7.61417637,13.5725333 L7.53184692,13.5775333 L7.44951747,13.5826 L7.36718802,13.5850667 L7.28978369,13.5826 L7.21244592,13.5775333 L7.13750416,13.57 L6.71314476,15.0325333 L6.3263228,14.8975333 L6.75061564,13.4300667 L6.7106822,13.3826 L6.66575707,13.3226 L6.61584027,13.2526 L6.55846922,13.1700667 L6.51354409,13.0925333 L6.47361065,13.015 L6.4336772,12.9325333 L6.39873544,12.8500667 L6.3663228,12.7626 L6.33637271,12.6750667 L6.30895175,12.5876 L6.28645591,12.4951333 L6.26402662,12.4025333 L6.24652246,12.3100667 L6.22908486,12.215 L6.21657238,12.12 L6.20412646,12.025 L6.19660566,11.93 L6.1866223,11.74 L6.1866223,11.5499333 L6.19161398,11.4574667 L6.19660566,11.3649333 L6.20658902,11.2724 L6.21650582,11.1824 L6.2290183,11.0949333 L6.24392679,11.0074667 L6.26143095,10.925 L6.28139767,10.8425333 L6.30389351,10.7624667 L6.3263228,10.6849333 L6.35374376,10.6099333 L6.38116473,10.5399333 L6.41111481,10.4724667 L6.44106489,10.4074667 L6.59574043,10.115 L6.72552413,9.86246667 L6.83540765,9.65253333 L6.9228619,9.48506667 L6.99021631,9.35506667 L7.03760399,9.26253333 L7.06755408,9.20753333 L7.07500832,9.18993333 Z M10.3995341,5.765 L10.4044592,5.775 L10.4194343,5.80746667 L10.4419301,5.86 L10.4697504,5.9344 L10.4821963,5.97693333 L10.4946423,6.027 L10.5070882,6.082 L10.5170715,6.14206667 L10.5270549,6.207 L10.5345757,6.277 L10.5396339,6.352 L10.5446256,6.42953333 L10.5420965,6.51453333 L10.5396339,6.60453333 L10.5321131,6.69953333 L10.5196007,6.797 L10.5021631,6.90206667 L10.4821963,7.01206667 L10.4547754,7.1246 L10.4223627,7.24206667 L10.3823627,7.36706667 L10.3375042,7.49453333 L10.2851248,7.62713333 L10.2252246,7.7646 L10.1578702,7.9046 L10.0804659,8.05206667 L9.99554077,8.202 L9.9031614,8.357 L9.86069884,8.4446 L9.81584027,8.54206667 L9.7733777,8.642 L9.72599002,8.74953333 L9.67860233,8.85953333 L9.62615641,8.96953333 L9.57124792,9.07953333 L9.51387687,9.187 L9.62868552,9.15453333 L9.74595674,9.12206667 L9.86069884,9.0896 L9.97304493,9.0596 L10.0804659,9.0296 L10.1852912,9.00213333 L10.3774376,8.9546 L10.5471547,8.90966667 L10.7093511,8.8696 L10.8666889,8.83713333 L11.0189018,8.80966667 L11.1636606,8.78966667 L11.3033611,8.77466667 L11.4381364,8.76713333 L11.5679201,8.76213333 L11.6903161,8.76213333 L11.8051248,8.76466667 L11.9174709,8.7722 L12.0222962,8.78213333 L12.1220632,8.79713333 L12.2169052,8.8146 L12.3067554,8.83213333 L12.3890849,8.85213333 L12.4664892,8.87466667 L12.5413644,8.89966667 L12.6087188,8.9222 L12.6710815,8.9472 L12.72599,8.97226667 L12.7784359,8.99726667 L12.8258236,9.02226667 L12.8657571,9.0448 L12.9356406,9.08733333 L12.9830283,9.1198 L13.0104493,9.14233333 L13.0204326,9.14986667 L13.0029285,9.15486667 L12.94802,9.1774 L12.853178,9.21753333 L12.7233943,9.275 L12.6435275,9.31506667 L12.5536772,9.35753333 L12.4539101,9.41006667 L12.3439601,9.4676 L12.2242263,9.53253333 L12.0944426,9.60506667 L11.9547421,9.685 L11.8049917,9.77246667 L11.7425624,9.80746667 L11.6777371,9.84 L11.6102496,9.87246667 L11.5378369,9.9024 L11.4629617,9.92986667 L11.385624,9.95493333 L11.3057571,9.97993333 L11.2234276,10.0025333 L11.1385691,10.025 L11.0512479,10.0425333 L10.9639268,10.06 L10.7840932,10.09 L10.6917138,10.1024667 L10.599401,10.11 L10.5070216,10.12 L10.4147088,10.125 L10.3198669,10.1275333 L10.2275541,10.13 L10.1351747,10.13 L10.0428619,10.1275333 L9.86302829,10.1174667 L9.77317804,10.1074667 L9.68585691,10.0975333 L9.60099834,10.0850667 L9.51866889,10.0675333 L9.43633943,10.0500667 L9.35893511,10.0325333 L9.28153078,10.0100667 L9.20905158,9.985 L9.13916805,9.95753333 L8.37544093,11.0650667 L8.04106489,10.8351333 L8.80732113,9.7226 L8.78482529,9.6676 L8.75986689,9.5976 L8.72998336,9.5176 L8.7025624,9.4226 L8.68259567,9.34013333 L8.66509151,9.25266667 L8.65264559,9.16506667 L8.64512479,9.07753333 L8.63760399,8.98506667 L8.63514143,8.89506667 L8.63760399,8.80253333 L8.64013311,8.71006667 L8.64765391,8.615 L8.65757072,8.52253333 L8.67001664,8.42753333 L8.68499168,8.33493333 L8.7049584,8.23993333 L8.72492512,8.1474 L8.74742097,8.05493333 L8.77237937,7.9624 L8.79980033,7.8724 L8.82968386,7.7824 L8.86216306,7.69493333 L8.89710483,7.60746667 L8.93198003,7.52233333 L8.96945092,7.43986667 L9.0493178,7.27993333 L9.09171381,7.20493333 L9.13417637,7.13246667 L9.1791015,7.06246667 L9.22648918,6.995 L9.27148087,6.93 L9.32139767,6.87 L9.36878536,6.81246667 L9.41870216,6.75986667 L9.65577371,6.51993333 L9.85790349,6.315 L10.0275541,6.14253333 L10.162396,6.00506667 L10.2672213,5.89993333 L10.3420965,5.82493333 L10.3845591,5.77993333 L10.3995341,5.765 Z M29.9743095,5.765 L29.9867554,5.77993333 L30.0318136,5.82493333 L30.1041597,5.89993333 L30.208985,6.00506667 L30.346223,6.14253333 L30.513411,6.315 L30.7155408,6.51993333 L30.9527454,6.75986667 L31.0025957,6.81246667 L31.0525125,6.87 L31.0999002,6.93 L31.1472879,6.995 L31.192213,7.06246667 L31.2370715,7.13246667 L31.2819967,7.20493333 L31.3244592,7.27993333 L31.4043261,7.43986667 L31.441797,7.52233333 L31.4767388,7.60746667 L31.5091514,7.69493333 L31.5415641,7.7824 L31.5715141,7.8724 L31.5989351,7.9624 L31.6239601,8.05493333 L31.6489185,8.1474 L31.6688852,8.23993333 L31.6863894,8.33493333 L31.7013644,8.42753333 L31.7138103,8.52253333 L31.7237271,8.615 L31.7312479,8.71006667 L31.7363062,8.80253333 L31.7363062,8.89506667 L31.733777,8.98506667 L31.7287854,9.07753333 L31.718802,9.16506667 L31.7063561,9.25266667 L31.691381,9.34013333 L31.6714143,9.4226 L31.6414642,9.5176 L31.6140433,9.5976 L31.5890183,9.6676 L31.5640599,9.7226 L32.3327787,10.8351333 L31.9984027,11.0650667 L31.2321464,9.95753333 L31.1622629,9.985 L31.0899168,10.0100667 L31.0150416,10.0325333 L30.9351747,10.0500667 L30.8553744,10.0675333 L30.7703827,10.0850667 L30.6855907,10.0975333 L30.5108819,10.1174667 L30.4210316,10.1224667 L30.3286522,10.1275333 L30.238802,10.13 L30.1439601,10.13 L30.0516473,10.1275333 L29.9592013,10.125 L29.8668885,10.12 L29.7720466,10.11 L29.6797338,10.1024667 L29.5898835,10.09 L29.4975042,10.075 L29.4076539,10.06 L29.3203328,10.0425333 L29.2354742,10.025 L29.1505491,10.0025333 L29.0682196,9.97993333 L28.9883527,9.95493333 L28.911015,9.92986667 L28.8361398,9.9024 L28.7637271,9.87246667 L28.6938436,9.84 L28.6290183,9.80746667 L28.5690516,9.77246667 L28.4193012,9.685 L28.2794676,9.60506667 L28.1496173,9.53253333 L28.0298835,9.4676 L27.9200666,9.41006667 L27.8202329,9.35753333 L27.7303827,9.31506667 L27.6505824,9.275 L27.518203,9.21753333 L27.4258902,9.1774 L27.3709817,9.15486667 L27.351015,9.14986667 L27.3609983,9.14233333 L27.3909484,9.1198 L27.4383361,9.08733333 L27.5056905,9.0448 L27.5481531,9.02226667 L27.5930782,8.99726667 L27.6455907,8.97226667 L27.7029617,8.9472 L27.7653245,8.9222 L27.8326789,8.89966667 L27.9050915,8.87466667 L27.9824958,8.85213333 L28.0672879,8.83213333 L28.1546755,8.8146 L28.2495175,8.79713333 L28.3493511,8.78213333 L28.456772,8.7722 L28.566589,8.76466667 L28.6838602,8.76213333 L28.8061231,8.76213333 L28.9333777,8.76713333 L29.0681531,8.77466667 L29.2079867,8.78966667 L29.3527454,8.80966667 L29.5049584,8.83713333 L29.6621631,8.8696 L29.8269551,8.90966667 L29.9966057,8.9546 L30.0890516,8.97713333 L30.1863561,9.00213333 L30.2911814,9.0296 L30.4009983,9.0596 L30.5133444,9.0896 L30.6281531,9.12206667 L30.7428952,9.15453333 L30.8602995,9.187 L30.8003328,9.07953333 L30.7454243,8.96953333 L30.6955075,8.85953333 L30.6481198,8.74953333 L30.6007321,8.642 L30.555807,8.54206667 L30.513411,8.4446 L30.4709484,8.357 L30.3761065,8.202 L30.2912479,8.05206667 L30.2163727,7.9046 L30.1489517,7.7646 L30.0890516,7.62713333 L30.0341431,7.49453333 L29.9891514,7.36706667 L29.9516805,7.24206667 L29.9167388,7.1246 L29.8917804,7.01206667 L29.8692845,6.90206667 L29.8518469,6.797 L29.8418636,6.69953333 L29.8343428,6.60453333 L29.8293511,6.51453333 L29.8293511,6.43 L29.8318802,6.35246667 L29.8368719,6.27746667 L29.8443927,6.20746667 L29.854376,6.14253333 L29.8643594,6.08246667 L29.8768053,6.02746667 L29.8892512,5.9774 L29.9042263,5.93486667 L29.9291847,5.85986667 L29.951614,5.80733333 L29.966589,5.77486667 L29.9743095,5.765 Z M14.5400998,3.6576 L14.542629,3.6702 L14.5526123,3.7052 L14.5625291,3.7602 L14.5725125,3.83773333 L14.5775042,3.8852 L14.5800333,3.93513333 L14.5824958,3.99013333 L14.5800333,4.0526 L14.5775042,4.1176 L14.5699834,4.1876 L14.5624626,4.26006667 L14.5474875,4.34006667 L14.532579,4.4226 L14.5100832,4.51013333 L14.4826622,4.60013333 L14.4527121,4.69513333 L14.4153078,4.79506667 L14.3728453,4.8976 L14.3229285,5.00253333 L14.26802,5.11253333 L14.2056572,5.22513333 L14.1357737,5.34006667 L14.0583694,5.46006667 L13.9709151,5.58253333 L13.8786023,5.70753333 L13.773777,5.83753333 L13.6614309,5.96753333 L13.5391681,6.1026 L13.4792679,6.17766667 L13.4193012,6.2626 L13.3544759,6.35513333 L13.2871215,6.45013333 L13.2196339,6.5476 L13.1472213,6.64506667 L13.0723461,6.74253333 L12.9924792,6.8376 L13.112213,6.8276 L13.2321464,6.82006667 L13.3518802,6.81006667 L13.4666889,6.80253333 L13.5814975,6.79493333 L13.6887854,6.78993333 L13.7910815,6.78486667 L13.8859235,6.77986667 L14.0606988,6.76993333 L14.2278869,6.7624 L14.3900832,6.7624 L14.5422962,6.7674 L14.689584,6.77493333 L14.8294176,6.78993333 L14.964193,6.805 L15.088985,6.82753333 L15.2087188,6.85006667 L15.3235275,6.87753333 L15.4308153,6.90746667 L15.5331115,6.94 L15.62802,6.97246667 L15.7178702,7.00746667 L15.8001997,7.04246667 L15.877604,7.07993333 L15.9499501,7.11746667 L16.017371,7.155 L16.0772712,7.19246667 L16.1346423,7.22746667 L16.1845591,7.265 L16.2319468,7.3 L16.2719468,7.33246667 L16.3068885,7.3624 L16.3667887,7.41746667 L16.4067221,7.45993333 L16.4317471,7.4874 L16.4392679,7.49493333 L16.4191681,7.5 L16.361797,7.50746667 L16.2619634,7.52753333 L16.1221963,7.56 L16.0348752,7.58253333 L15.9375707,7.6076 L15.8302829,7.63753333 L15.7104825,7.67253333 L15.5806323,7.71253333 L15.4408652,7.75753333 L15.2861897,7.80753333 L15.1239268,7.865 L15.0565724,7.88753333 L14.9842263,7.90753333 L14.9118136,7.92506667 L14.8369384,7.93753333 L14.757005,7.95253333 L14.6746755,7.96246667 L14.5923461,7.97 L14.5074875,7.975 L14.4201664,7.98006667 L14.2404659,7.98006667 L14.1506156,7.97753333 L14.0582363,7.97253333 L13.9683195,7.96753333 L13.8759401,7.95753333 L13.7836273,7.94753333 L13.6887854,7.93506667 L13.5989351,7.92006667 L13.5066223,7.9026 L13.416772,7.88506667 L13.3269218,7.8626 L13.2370715,7.84006667 L13.1520799,7.81753333 L13.0672879,7.79006667 L12.9824293,7.7626 L12.8227621,7.70266667 L12.7478869,7.66766667 L12.6730116,7.63266667 L12.6031281,7.59753333 L12.473411,7.51753333 L11.5049584,8.4526 L11.2229617,8.15753333 L12.1963394,7.22006667 L12.183827,7.16253333 L12.171381,7.09006667 L12.1614642,7.00506667 L12.1514809,6.9076 L12.1489517,6.82013333 L12.1489517,6.73253333 L12.15401,6.64506667 L12.1639268,6.55506667 L12.1763727,6.46506667 L12.1913478,6.37506667 L12.2113145,6.28506667 L12.2338103,6.19506667 L12.2587687,6.10506667 L12.2861897,6.01506667 L12.3186689,5.92493333 L12.3510815,5.83493333 L12.3885524,5.74746667 L12.4259567,5.66 L12.4660233,5.575 L12.555807,5.40506667 L12.6505824,5.24506667 L12.7004992,5.165 L12.7528785,5.09 L12.8053245,5.015 L12.9151414,4.875 L12.972579,4.81 L13.0299501,4.74753333 L13.0873877,4.68753333 L13.1448253,4.63 L13.2047255,4.57753333 L13.2646922,4.52753333 L13.3221298,4.48006667 L13.38203,4.43753333 L13.6614975,4.25 L13.9010982,4.09 L14.0983694,3.95506667 L14.2605657,3.84753333 L14.3828286,3.76253333 L14.4702163,3.70506667 L14.5225957,3.67006667 L14.5400998,3.6576 Z M25.8337438,3.6576 L25.8512479,3.67006667 L25.9011647,3.70506667 L25.9884859,3.76253333 L26.113411,3.84753333 L26.2730782,3.95506667 L26.4727454,4.09 L26.7123461,4.25 L26.9919468,4.43753333 L27.0493844,4.48006667 L27.1092845,4.52753333 L27.1691847,4.57753333 L27.2266223,4.63 L27.2865225,4.68753333 L27.3439601,4.74753333 L27.4013311,4.81 L27.4562396,4.875 L27.5136772,4.945 L27.5661231,5.015 L27.6186356,5.09 L27.671015,5.165 L27.7708486,5.32506667 L27.8182363,5.40506667 L27.8631614,5.49 L27.905624,5.575 L27.9455574,5.66 L27.9854908,5.74746667 L28.0204326,5.83493333 L28.0553744,5.92493333 L28.0853245,6.01506667 L28.1152745,6.10506667 L28.1402329,6.19506667 L28.1627288,6.28506667 L28.1801664,6.37506667 L28.1976705,6.46506667 L28.2101165,6.55506667 L28.2176373,6.64506667 L28.222629,6.73253333 L28.2251581,6.82013333 L28.222629,6.9076 L28.2126456,7.00506667 L28.2001997,7.09006667 L28.1877537,7.16253333 L28.1777704,7.22006667 L29.148619,8.15753333 L28.8666223,8.4526 L27.8982363,7.51753333 L27.8358735,7.55753333 L27.7685191,7.59753333 L27.6986356,7.63266667 L27.6262895,7.66766667 L27.5488186,7.70266667 L27.4714143,7.73266667 L27.3890849,7.7626 L27.3067554,7.79006667 L27.2219634,7.81753333 L27.1345757,7.84006667 L27.0472546,7.8626 L26.9574043,7.88506667 L26.865025,7.9026 L26.7751082,7.92006667 L26.6827288,7.93506667 L26.5903494,7.94753333 L26.4980366,7.95753333 L26.4056572,7.96753333 L26.2209651,7.97753333 L26.1311148,7.98006667 L25.9538103,7.98006667 L25.8664892,7.975 L25.7816306,7.97 L25.696772,7.96246667 L25.6169052,7.95253333 L25.5371048,7.93753333 L25.4597005,7.92506667 L25.3872879,7.90753333 L25.3174043,7.88753333 L25.2500499,7.865 L25.0852579,7.80753333 L24.9331115,7.75753333 L24.7908153,7.71253333 L24.6610316,7.67253333 L24.5412313,7.63753333 L24.4339434,7.6076 L24.3365058,7.58253333 L24.2517138,7.56 L24.1119468,7.52753333 L24.0121131,7.50746667 L23.9547421,7.5 L23.9347754,7.49493333 L23.9422962,7.4874 L23.9647255,7.45993333 L24.007188,7.41746667 L24.0646256,7.3624 L24.10203,7.33246667 L24.14203,7.3 L24.1868885,7.265 L24.2393344,7.22746667 L24.2942429,7.19246667 L24.3565391,7.155 L24.4215641,7.11746667 L24.4939101,7.07993333 L24.5713145,7.04246667 L24.656173,7.00746667 L24.7460233,6.97246667 L24.8408652,6.94 L24.9406323,6.90746667 L25.0479867,6.87753333 L25.1627953,6.85006667 L25.2827288,6.82753333 L25.4099834,6.805 L25.5422296,6.78993333 L25.6819967,6.77493333 L25.829218,6.7674 L25.9839601,6.7624 L26.1437604,6.7624 L26.3134775,6.76993333 L26.4881198,6.77986667 L26.5829617,6.78486667 L26.6852579,6.78993333 L26.7925458,6.79493333 L26.9049584,6.80253333 L27.0221631,6.81006667 L27.1394343,6.82006667 L27.2592346,6.8276 L27.3790349,6.8376 L27.3016306,6.74253333 L27.2267554,6.64506667 L27.1543428,6.5476 L27.0844592,6.45013333 L27.0196339,6.35513333 L26.9547421,6.2626 L26.8923794,6.17766667 L26.8350083,6.1026 L26.7126123,5.96753333 L26.5978037,5.83753333 L26.4955075,5.70753333 L26.4006656,5.58253333 L26.315807,5.46006667 L26.2360067,5.34006667 L26.1661231,5.22513333 L26.1037604,5.11253333 L26.0488519,5.00253333 L25.9988686,4.8976 L25.956406,4.79506667 L25.9214642,4.69513333 L25.8890516,4.60013333 L25.8640266,4.51013333 L25.8415308,4.4226 L25.8240932,4.34006667 L25.8116473,4.26006667 L25.8016639,4.1876 L25.7966722,4.1176 L25.7916805,4.0526 L25.7916805,3.935 L25.7941431,3.88506667 L25.7992013,3.8376 L25.8091181,3.76006667 L25.8215641,3.70506667 L25.8315474,3.67006667 L25.8337438,3.6576 Z M17.3081531,4.35246667 L17.430416,4.35746667 L17.5502163,4.365 L17.6649584,4.38 L17.7773045,4.39746667 L17.8820632,4.42006667 L17.9818968,4.44753333 L18.3463561,4.56006667 L18.6557737,4.65753333 L18.9154077,4.73753333 L19.1249917,4.80246667 L19.2847255,4.85246667 L19.3995341,4.88746667 L19.4643594,4.90746667 L19.4868552,4.915 L19.4744759,4.92766667 L19.437005,4.96266667 L19.3771048,5.01766667 L19.2922463,5.08766667 L19.2398669,5.1302 L19.1824293,5.17273333 L19.1200666,5.22033333 L19.050183,5.2678 L18.9778369,5.31773333 L18.89797,5.36773333 L18.8130449,5.42026667 L18.7206656,5.4702 L18.6258236,5.52273333 L18.5235275,5.5752 L18.4187022,5.6252 L18.3064226,5.6752 L18.1891514,5.72266667 L18.066822,5.77013333 L17.9419634,5.81266667 L17.8097171,5.85266667 L17.6724792,5.89013333 L17.530183,5.92513333 L17.3854243,5.95513333 L17.2332779,5.98013333 L17.0784027,6.0002 L16.9186689,6.01526667 L16.7539434,6.02526667 L16.5842928,6.02773333 L16.4420632,6.02773333 L16.2897171,6.02526667 L16.1275208,6.0202 L15.9578037,6.01773333 L15.785624,6.0102 L15.6108486,6.0052 L15.4411314,5.9976 L15.276406,5.9926 L15.1192013,5.98506667 L14.9744426,5.97753333 L14.8446589,5.97253333 L14.7297837,5.96746667 L14.6349418,5.96246667 L14.5650582,5.95993333 L14.5201331,5.95746667 L14.5052246,5.95493333 L14.5476206,5.83493333 L14.5975374,5.71746667 L14.6574376,5.605 L14.724792,5.49746667 L14.8021298,5.395 L14.8845923,5.29506667 L14.9744426,5.20253333 L15.0692845,5.11493333 L15.1716473,5.03246667 L15.276406,4.95253333 L15.3887521,4.88 L15.5060233,4.81 L15.6232945,4.74506667 L15.7482196,4.68753333 L15.8730116,4.63253333 L16.0027953,4.58253333 L16.132579,4.5376 L16.2648253,4.4976 L16.3970715,4.4626 L16.5294509,4.4326 L16.6616972,4.4076 L16.7939434,4.38746667 L16.9261897,4.37246667 L17.0559734,4.36 L17.183228,4.355 L17.3081531,4.35246667 Z M23.0634276,4.35246667 L23.1882196,4.355 L23.3180033,4.36 L23.4478536,4.37246667 L23.5776373,4.38746667 L23.7099501,4.4076 L23.8421963,4.4326 L23.9769717,4.4626 L24.109218,4.4976 L24.2414642,4.5376 L24.3712479,4.58253333 L24.4986356,4.63253333 L24.6258902,4.68753333 L24.7481531,4.74506667 L24.8679534,4.81 L24.9826955,4.88 L25.0950416,4.95253333 L25.2023295,5.03246667 L25.3047587,5.11493333 L25.3996672,5.20253333 L25.4894509,5.29506667 L25.5718469,5.395 L25.6467221,5.49746667 L25.7140765,5.605 L25.7739767,5.71746667 L25.8264226,5.83493333 L25.8663561,5.95493333 L25.851381,5.95746667 L25.8064559,5.95993333 L25.7366389,5.96246667 L25.6442596,5.96746667 L25.5294509,5.97253333 L25.3972047,5.97753333 L25.2524459,5.98506667 L25.0976373,5.9926 L24.9304493,5.9976 L24.7607987,6.0052 L24.588619,6.0102 L24.4164393,6.01773333 L24.246589,6.0202 L24.0843927,6.02526667 L23.9296506,6.02773333 L23.787421,6.02773333 L23.6202329,6.02526667 L23.4555075,6.01526667 L23.2930449,6 L23.1383694,5.97993333 L22.988619,5.95493333 L22.8413977,5.92493333 L22.6990349,5.88993333 L22.5642596,5.85246667 L22.4320133,5.81246667 L22.3047587,5.76993333 L22.1824958,5.72246667 L22.0676872,5.675 L21.9553411,5.625 L21.8479867,5.575 L21.7482196,5.52253333 L21.6509151,5.47 L21.5610649,5.42006667 L21.4762063,5.36753333 L21.396406,5.31753333 L21.3215308,5.2676 L21.2541764,5.22013333 L21.1916805,5.17253333 L21.1342429,5.13 L21.0818636,5.08746667 L20.997005,5.01746667 L20.9346423,4.96246667 L20.8972379,4.92746667 L20.8845258,4.915 L20.9070216,4.90746667 L20.974376,4.88746667 L21.0867221,4.85246667 L21.2490516,4.80246667 L21.4587022,4.73753333 L21.7157404,4.65753333 L22.0277537,4.56006667 L22.3895507,4.44753333 L22.4919135,4.42006667 L22.5966722,4.39746667 L22.7064892,4.38 L22.8214309,4.365 L22.9411647,4.35746667 L23.0634276,4.35246667 Z" id="形状结合"></path>
            </g>
        </g>
    </g>
</svg>