<?xml version="1.0" encoding="UTF-8"?>
<svg width="22px" height="24px" viewBox="0 0 22 24" version="1.1" xmlns="http://www.w3.org/2000/svg" xmlns:xlink="http://www.w3.org/1999/xlink">
    <!-- Generator: Sketch 57 (83077) - https://sketch.com -->
    <title>mima-3</title>
    <desc>Created with Sketch.</desc>
    <g id="Page-1" stroke="none" stroke-width="1" fill="none" fill-rule="evenodd">
        <g id="吴中化工园区安环应急一体化智慧管理平台-登陆页备份-4" transform="translate(-724.000000, -607.000000)" fill="#0BA1F8" fill-rule="nonzero">
            <g id="编组" transform="translate(701.000000, 444.000000)">
                <g id="mima-3" transform="translate(23.000000, 163.000000)">
                    <path d="M2.99755321,10.6185759 C2.45061822,10.6185759 2.00721265,11.0483591 2.00721265,11.5789474 L2.00721265,20.2679257 C2.00721265,20.7978328 2.44993712,21.2276161 2.99687209,21.2282972 L18.9281414,21.2282972 C19.4743953,21.2276161 19.9178009,20.7978328 19.918482,20.2679257 L19.918482,11.5789474 C19.9178009,11.0490403 19.4743953,10.619257 18.9281414,10.619257 L2.99687209,10.619257 L2.99755321,10.6185759 Z M18.9281414,23.1578947 L2.99687209,23.1578947 C1.35402381,23.1578947 0.0169959272,21.8610526 0.0169959272,20.2679257 L0.0169959272,11.5789474 C0.0169959272,9.98650154 1.35402379,8.68965944 2.99687209,8.68965944 L18.9281414,8.68965944 C20.5709898,8.68965944 21.9080176,9.98650154 21.9080176,11.5789474 L21.9080176,20.2686068 C21.9080176,21.8610526 20.5709898,23.1578947 18.9281414,23.1578947 L18.9281414,23.1578947 Z" id="形状"></path>
                    <path d="M16.9331569,10.613808 L14.9429402,10.613808 L14.9429402,5.78947368 C14.9429402,3.66099071 13.157739,1.92959752 10.9625068,1.92959752 C8.76727459,1.92959752 6.98207335,3.66099071 6.98207333,5.78947368 L6.98207333,10.613808 L4.99253773,10.613808 L4.99253773,5.78947368 C4.99253773,2.59640868 7.66931792,0 10.9625068,0 C14.2550145,0 16.9331569,2.59640868 16.9331569,5.78947368 L16.9331569,10.613808 Z M10.9625068,18.3335604 C10.4155718,18.3335604 9.96807953,17.8990093 9.96807953,17.3684211 L9.96807953,14.4736842 C9.96807953,13.9424149 10.4155718,13.5085449 10.9625068,13.5085449 C11.5101229,13.5085449 11.9576151,13.943096 11.9576151,14.4736842 L11.9576151,17.3684211 C11.9576151,17.8996904 11.5101229,18.3335604 10.9631879,18.3335604 L10.9625068,18.3335604 Z" id="形状"></path>
                </g>
            </g>
        </g>
    </g>
</svg>