<?xml version="1.0" encoding="UTF-8"?>
<svg width="22px" height="22px" viewBox="0 0 22 22" version="1.1" xmlns="http://www.w3.org/2000/svg" xmlns:xlink="http://www.w3.org/1999/xlink">
    <!-- Generator: Sketch 57 (83077) - https://sketch.com -->
    <title>形状</title>
    <desc>Created with Sketch.</desc>
    <g id="效果图" stroke="none" stroke-width="1" fill="none" fill-rule="evenodd" opacity="0.5">
        <g id="屏幕扩展示意备份-2" transform="translate(-842.000000, -502.000000)" fill="#00C7D2" fill-rule="nonzero">
            <g id="编组-3" transform="translate(744.000000, 364.000000)">
                <g id="登录框">
                    <path d="M117.555556,138 L100.444444,138 C99.0938889,138 98,139.093889 98,140.444444 L98,157.555556 C98,158.906111 99.0938889,160 100.444444,160 L117.555556,160 C118.906111,160 120,158.906111 120,157.555556 L120,140.444444 C120,139.093889 118.906111,138 117.555556,138 Z M109,142.033333 C110.821111,142.033333 112.3,143.512222 112.3,145.333333 C112.3,147.154444 110.821111,148.633333 109,148.633333 C107.178889,148.633333 105.7,147.154444 105.7,145.333333 C105.7,143.512222 107.178889,142.033333 109,142.033333 Z M116.333333,155.111111 L101.666667,155.111111 L101.666667,154.011111 C101.666667,151.566667 106.555556,150.222222 109,150.222222 C111.444444,150.222222 116.333333,151.566667 116.333333,154.011111 L116.333333,155.111111 Z" id="形状"></path>
                </g>
            </g>
        </g>
    </g>
</svg>