<?xml version="1.0" encoding="UTF-8"?>
<svg width="25px" height="13px" viewBox="0 0 25 13" version="1.1" xmlns="http://www.w3.org/2000/svg" xmlns:xlink="http://www.w3.org/1999/xlink">
    <!-- Generator: Sketch 57 (83077) - https://sketch.com -->
    <title>形状</title>
    <desc>Created with Sketch.</desc>
    <g id="效果图" stroke="none" stroke-width="1" fill="none" fill-rule="evenodd" opacity="0.5">
        <g id="屏幕扩展示意备份-2" transform="translate(-840.000000, -576.000000)" fill="#00C7D2" fill-rule="nonzero">
            <g id="编组-3" transform="translate(744.000000, 364.000000)">
                <g id="登录框">
                    <path d="M108.8,216.333333 C107.905455,213.809167 105.483636,212 102.636364,212 C99.0254545,212 96.0909091,214.914167 96.0909091,218.5 C96.0909091,222.085833 99.0254545,225 102.636364,225 C105.483636,225 107.905455,223.190833 108.8,220.666667 L113.545455,220.666667 L113.545455,225 L116.818182,225 L116.818182,220.666667 L120.090909,220.666667 L120.090909,216.333333 L108.8,216.333333 Z M102.636364,220.666667 C101.436364,220.666667 100.454545,219.691667 100.454545,218.5 C100.454545,217.308333 101.436364,216.333333 102.636364,216.333333 C103.836364,216.333333 104.818182,217.308333 104.818182,218.5 C104.818182,219.691667 103.836364,220.666667 102.636364,220.666667 Z" id="形状"></path>
                </g>
            </g>
        </g>
    </g>
</svg>