<?xml version="1.0" encoding="UTF-8"?>
<svg width="90px" height="89px" viewBox="0 0 90 89" version="1.1" xmlns="http://www.w3.org/2000/svg" xmlns:xlink="http://www.w3.org/1999/xlink">
    <!-- Generator: Sketch 57 (83077) - https://sketch.com -->
    <title>shengchan-2</title>
    <desc>Created with Sketch.</desc>
    <g id="Page-1" stroke="none" stroke-width="1" fill="none" fill-rule="evenodd">
        <g id="吴中化工园区安环应急一体化智慧管理首页备份-7" transform="translate(-1259.000000, -430.000000)" fill="#00FDFF" fill-rule="nonzero">
            <g id="shengchan-2" transform="translate(1259.000000, 430.000000)">
                <path d="M89.25,45.6987305 C85.625,43.8862305 82.0625,42.0737304 78.4375,40.3237305 C78.0096936,40.1553455 77.75182,39.7169604 77.8125,39.2612304 L77.8125,8.8237305 C77.8125,8.19873047 77.8125,8.07373044 77.0625,8.07373044 L68.75,8.07373044 C68.1249999,8.07373044 68,8.07373044 68.0625,7.3237305 L68.0625,0.636230438 C68.0625,0.136230469 68.0625,0.0737304382 67.4375,0.0737304382 L62.875,0.0737304382 C61.375,0.0737304382 62.0625,0.0737304382 62.0625,0.823730438 L62.0625,31.8237305 L61.0625,31.8237305 L14.5,8.38623047 C14.1304117,8.29613296 13.7445883,8.29613296 13.375,8.38623047 L0.874999969,8.38623047 C0,8.07373044 0,8.19873047 0,8.88623044 L0,87.3237305 C0,88.0737304 0,88.0737304 0.687499969,88.0737304 L89.0625,88.0737304 C89.625,88.0737304 89.75,88.0737304 89.75,87.3862305 L89.75,46.6987305 C89.8313047,46.2539867 89.5603976,45.8205354 89.125,45.6987305 L89.25,45.6987305 Z M17.9375,79.4487305 C17.9375,79.8862305 17.9375,80.0112305 17.3125,80.0112305 L10.5625,80.0112305 C10.0625001,80.0112305 9.87499997,80.0112305 9.87499997,79.3862304 L9.87499997,48.7612305 C9.87499997,48.1987305 9.87499997,48.0737304 10.5625,48.0737304 L17.1875,48.0737304 C17.75,48.0737304 17.875,48.0737304 17.875,48.7612305 L17.9375,79.4487305 Z M29.375,79.9487304 L22.5,79.9487304 C22,79.9487304 21.875,79.9487304 21.875,79.3237305 L21.875,48.6987305 C21.875,48.1362305 21.875,48.0112305 22.5625,48.0112305 L29.25,48.0112305 C29.6875,48.0112305 29.875,48.0112305 29.875,48.6362304 L29.875,79.3862304 C29.9375001,79.8862304 29.8125,79.9487304 29.3125,79.9487304 L29.375,79.9487304 Z M41.875,79.5112305 C41.875,79.8862305 41.875,80.0112305 41.3125,80.0112305 L34.5625,80.0112305 C34,80.0112305 33.8125,80.0112305 33.8125,79.3237305 L33.8125,48.8237304 C33.8125,48.2612304 33.8125,48.0737304 34.5,48.0737304 L41.25,48.0737304 C41.6875,48.0737304 41.8125,48.0737304 41.8125,48.6362304 L41.875,79.5112305 Z" id="形状"></path>
            </g>
        </g>
    </g>
</svg>