<?xml version="1.0" encoding="UTF-8"?>
<svg width="88px" height="91px" viewBox="0 0 88 91" version="1.1" xmlns="http://www.w3.org/2000/svg" xmlns:xlink="http://www.w3.org/1999/xlink">
    <!-- Generator: Sketch 57 (83077) - https://sketch.com -->
    <title>xiaofangshuan</title>
    <desc>Created with Sketch.</desc>
    <g id="Page-1" stroke="none" stroke-width="1" fill="none" fill-rule="evenodd">
        <g id="吴中化工园区安环应急一体化智慧管理首页备份-7" transform="translate(-915.000000, -428.000000)" fill="#00FDFF" fill-rule="nonzero">
            <g id="xiaofangshuan" transform="translate(915.000000, 428.000000)">
                <path d="M72.4566907,87.7649245 L72.4566907,60.9918699 L80.6013848,60.9918699 L80.6013848,43.2487805 L72.4566907,43.2487805 L72.4566907,34.5673403 L15.555744,34.5673403 L15.555744,43.2487805 L7.22453017,43.2487805 L7.22453017,61.0024313 L15.555744,61.0024313 L15.555744,87.7649245 L0,87.7649245 L0,90.9333333 L88,90.9333333 L88,87.7649245 L72.4566907,87.7649245 Z M38.2365409,87.6065041 L34.5061467,87.6065041 L34.5061467,46.4171893 L38.2365409,46.4171893 L38.2365409,87.6065041 Z M55.2844426,87.6065041 L51.5540483,87.6065041 L51.5540483,46.4171893 L55.2844426,46.4171893 L55.2844426,87.6065041 Z M80.3278225,28.2727681 L72.4566907,28.2727681 C72.2453017,18.049369 63.7275682,9.51578784 52.3871697,7.36126984 L52.3871697,0 L35.6252649,0 L35.6252649,7.36126984 C24.2973011,9.51578784 15.767133,18.049369 15.555744,28.2727681 L7.68461212,28.2727681 L7.68461212,31.4411769 L80.3278225,31.4411769 L80.3278225,28.2727681 Z" id="形状"></path>
            </g>
        </g>
    </g>
</svg>