<?xml version="1.0" encoding="UTF-8"?>
<svg width="23px" height="25px" viewBox="0 0 23 25" version="1.1" xmlns="http://www.w3.org/2000/svg" xmlns:xlink="http://www.w3.org/1999/xlink">
    <!-- Generator: Sketch 57 (83077) - https://sketch.com -->
    <title>形状</title>
    <desc>Created with Sketch.</desc>
    <g id="Page-1" stroke="none" stroke-width="1" fill="none" fill-rule="evenodd">
        <g id="吴中化工园区安环应急一体化智慧管理平台-登陆页备份-4" transform="translate(-724.000000, -514.000000)" fill="#0BA1F8" fill-rule="nonzero">
            <g id="编组" transform="translate(701.000000, 444.000000)">
                <g id="yonghuming-" transform="translate(23.000000, 70.000000)">
                    <path d="M20.8510206,22.0454751 L2.05134574,22.0454751 L2.05134574,18.1505148 C2.05134574,17.96875 2.23311055,17.6571532 2.44084176,17.579254 C2.64857298,17.5013548 4.69991871,16.5925307 7.32252529,15.9433707 C8.67277818,15.6058074 10.1268967,15.3461434 11.4252168,15.3461434 C12.7235368,15.3461434 13.9179913,15.5538746 15.1643786,15.8395051 C16.9651494,16.2774782 18.7278675,16.859262 20.4355582,17.579254 C20.617323,17.6571532 20.7990878,17.9427836 20.7990878,18.1505148 L20.7990878,22.0454751 L20.8510206,22.0454751 Z M7.84185332,5.45294436 C7.99516249,3.70999731 9.45482577,2.37308986 11.2045023,2.37308986 C12.9541789,2.37308986 14.4138422,3.70999731 14.5671514,5.45294436 L14.5671514,9.45177023 C14.4138422,11.1947173 12.9541789,12.5316247 11.2045023,12.5316247 C9.45482577,12.5316247 7.99516249,11.1947173 7.84185332,9.45177023 L7.84185332,5.45294436 Z M21.3184158,15.6577402 C21.1885838,15.6058074 19.3969021,14.8268154 17.0858923,14.1516889 C16.3069003,13.9266468 15.5192528,13.7362265 14.7229498,13.5804281 C15.8914379,12.5937048 16.6704299,11.1136199 16.6704299,9.45177023 L16.6704299,5.45294436 C16.6704299,2.44084176 14.2295882,-1.29496414e-12 11.2174855,-1.29496414e-12 C8.20538295,-1.29496414e-12 5.73857478,2.44084176 5.73857478,5.45294436 L5.73857478,9.45177023 C5.73857478,11.1655527 6.54353324,12.671604 7.78992052,13.6583273 C6.95899566,13.8400921 6.15403721,14.0478233 5.42697796,14.2555546 C4.14779105,14.6352376 2.89079334,15.086023 1.66184971,15.6058074 C0.701092847,15.9953035 1.3500312e-13,17.0599259 1.3500312e-13,18.098582 L1.3500312e-13,22.4349711 L0.0519328035,22.5907695 C0.363529624,23.4995936 1.19445448,24.1228474 2.12924494,24.1228474 L20.7990878,24.1228474 C21.8806712,24.1308566 22.7964587,23.3267505 22.9283327,22.2532063 L22.9283327,18.1505148 C22.9283327,17.1118587 22.2012735,16.0472363 21.2924494,15.6577402 L21.3184158,15.6577402 Z" id="形状"></path>
                </g>
            </g>
        </g>
    </g>
</svg>